<?xml version="1.0" encoding="UTF-8"?>
<svg version="1.1" viewBox="0 0 1600 1600" width="1280" height="1280" xmlns="http://www.w3.org/2000/svg">
<path transform="translate(0)" d="m0 0h1600v1600h-1600z" fill="#FEFDFC"/>
<path transform="translate(746,184)" d="m0 0h5l2 2 12-1 11 1v-2l10 2 2-1h17l3 1 17 1 18 2 24 5 2 1 9 1 24 7 22 8 12 5 33 17 11 9 4 6 5 21 6 40 2 21 2 12 3 34 2 19 1 5 1 20 1 17 1 9 3 49 2 54 1 18 1 65v30l-1 18-1 37-1 20 14 10 10 9 8 7 14 14 7 8 11 13 7 13-1 4-7 6-16 8-5 1 4 8 7 10 11 16 12 18 10 13 3 4 5-2 11-6 10-2 8 5 4 1 9-9 13-10 5-3 10-3h16l8 2v-17h-2v-5h2l-2-6-3-46h-9l-21-6-16-8-9-6-11-9-13-13-10-13-6-10-9-17-4-13-4-11-2-9-1-13-2-14 1-21 1-1 2-18 1-1 2-11 5-13 8-16 9-14 8-9 5-5 8-6 8-7 15-7 19-7 11-1 10-1 16 3 16 4 15 6 15 9 11 9 14 14 11 15 15 30 5 17 1 7 1 1 3 20v21l-4 29-7 21-9 19-8 12-12 13-5 5-10 8-7 4-16 8-13 4h-2l1 4 1 14 1 2 2 15 1 16 1 4 1 14 1 6 1 8 1 11 4 5 8 7 9 11 8 10 9 14 6 11 6 12 7 22 1 1 2 14 1 2 1 19-2 10-2 9-4 6-7 9-16 10-10 7-1 14-3 10-6 7-13 10-8 4-10 6-9 5-23 10-20 8-4 1h-16l-32 14-15 7-18 8-13 5-38 17-7 2 7 16 5 10 8 19 6 13 6 18 3 7 6 16 2 7 8 1-4-12v-2l9-3 7-6 3-7v-9l-1-4-3-1v14l-5 7h-2v2l-5 2h-5l-4-10 1-4 3 2 2 6 3 1-1-4v-10l5-6 7-4h2l-3-5-7-6h-13l-10 2-5-11-4-9 1-4 16-7h11l12 3 8 5 5 6 3 3v2h2l-1 5-4 9v3l14 2 4 7 1 4v19l-3 10-1 2h-2l-2 5-2 3h24l2-10 2-14v-10l-3-17-1-1v-6l7-3 22-11h6l5 11 1 6h2l6 12-2 17-5 5-6 1v2l-11 5h-2v2l-7 2v2l-8 3-5 3h50v-2h3v-2l22-11 4-1v-2l9-3v-2l4-2h3v-2l5-1v-2h3v-2l7-2v-2l5-1v-2l5-1v-2l5-3h3v-2l5-1v-2l4-2h3v-2l5-1v-2l6-3h2v-2l6-3h2v-2h3v-2h3v-2l5-3h2v-2l7-4 3-1v-2l5-3h2v-2l6-2v-6h-2l-3-9-2-1-3-8-5 3-1 2-7 4-5 4h-2v2l-9 5-3 1v2l-8 4-3 3h-2v2l-6 3-1 2-6 3h-2v2l-12 6-3 1v2l-6 2v2l-8 4-4 4-11 5h-2v2l-6 1-4-4v-3h-2v-3h-2l-1-5h-2l-2-7h-2l-2-5h-2l-3-7v-2h-2l-2-7h-2v-3h-2l-5-11-1-6h-2l-11-23-3-5 2-4 10-7 5-1v-2l9-4h2v-2l6-3h3v-2l12-6h2v-2l27-16 15-8 12-11 5-6 8-5 1-1-1-8-2-8 1-5 6-4 3 1 5 20 3 11 2 12 3 4 2 9 4 9 1 5h2l3 8 7 13 4 5 5 9 9 16 4 6 4 8 9 16 4 8 1 5 1 7-8 8-11 8h-2l6 11 6 9 12 22 7 14v7l-16 16-14-1-3-1-20-1-6-1-25-2-11-2-28-1-48-3-27-1-47-1-5-1h-109l-1 1h-21v-2l-6 2h-21l-8 1h-20l-14 1-94 3-25 1-18 1-24 1-1 1-13 1h-21l-14 2-27 1-7 2-22 22-16 9-8 6-17 8-11 6-14 7-13 4-28 7-27 4-23 1-6 1h-51l-50-7-30-7-16-6-12-5-22-12-8-5-11-13-11-14-15-25-7-16-2-6-5-16-2-15-1-3-1-13-1-3 1-25 6-32 6-18 4-9 5-10 3-9 8-16 9-17 12-22 8-13 6-10 9-13 10-15 10-18 10-19 11-23 7-14 8-17 8-18 9-22 5-12 10-25 6-17 3-7 4-14 4-11 5-16-4-2-7-7-5-4-7-10-3-5-2-8v-11l4-17 5-12 6-10 6-14 3-2v-6l-7-20-2-7-8-22-7-21-6-17-5-14-3-8-6-15-3-9-8-22-16-40-13-34-4-10-15-36-5-10v-15l6-16 3-7h2l2-6 6-9 2-4h2l2-4 4-6 9-11h2l1-3 5-5 7-4 1-1h11l6 8 2 4h4l2-4 11-8 3-3h2v-2l14-9 5-4 20-13 5-4 9-5 16-9 9-6 17-8 20-10 2-2 16-6 10-4 11-5 12-4 19-7 17-5 18-5 26-7 10-1 1-1 34-6 13-1 2-1 28-2h5z" fill="#0B0809"/>
<path transform="translate(740,134)" d="m0 0h65l30 2 28 4 40 8 25 7 18 6 12 5 10 4 16 8 14 9 11 8 11 11 8 12 5 13 5 24 4 24 3 21 1 6 5 45 2 21 2 28 3 36 1 18 1 9 2 31 2 21 1 3 5-1 4-5h2v-2l10-8 14-10 12-7 23-9 19-5 15-3h30l28 4 24 6 15 6 10 6 10 7 8 6 11 9 8 8v2l3 1 6 8 8 11 9 15 8 17 7 19 5 22 3 24 1 18v32l-4 27-3 15-4 13-6 15-9 17-6 9-4 7-11 13-8 8-15 11-10 7-4 5-1 3v10l3 10 6 9 5 6v2h2l14 20 10 18 10 19 5 15 4 16 4 26 1 26v19l-2 16-5 18v17l6 16 12 23 3 4 6 11 8 14 15 26 7 18 2 11 2 22v12l1 14 4 18 3 14 1 9v29l-4 15-9 18h-2l-2 4-8 6-10 5-19 4-20 1h-19l-43-4-46-3-34-1-36-2-40-1-13-1h-93l-20 1-66 1-23 1-7 1-40 1h-22l-21 2-24 1-14 1-33 1-33 2-11 3-7 6-9 7h-2v2l-15 10-17 10-17 8-15 8-13 5-27 8-23 5-30 4-40 3-14 1h-28l-27-3-33-4-23-4-24-6-9-2-22-10-11-4-14-7-11-7-13-12-10-11v-2h-2l-3-4v-2h-2l-12-17-12-23-7-14-6-16-2-10-2-7-4-22-1-8-1-31v-10l2-22 4-25 4-19 9-27 13-30 12-23 13-23 12-21 10-15 7-10 6-11 8-14 9-17 11-23 8-16 20-42 6-15 10-24 5-14 2-7v-9l-2-9-6-17-2-9-1-11v-24l1-13 4-17 4-13 2-8 1-3v-10l-2-9-9-27-11-30-8-21-3-10-4-10-7-19-11-27-5-13-5-12-5-13-5-12-13-33-6-19-1-9-1-8v-21l2-18 5-20 6-14 6-11 10-15h2l2-4 8-11 4-5h2l1-3 14-10 12-6 12-3 21-4 14-6 13-10 10-7 17-11 10-6 11-6 15-8 19-9 14-7 10-4 21-9 15-6 29-10 29-9 46-11 27-5 41-5 6-1zm6 50-2 2-18 1-15 1-2 1-18 2-29 5-1 1-14 2-27 7-16 5-26 8-12 5-17 6-9 4-14 6-5 2-10 6-7 3-15 7-9 5-15 9-12 7-9 6-20 13-12 9-7 4v2l-4 2-5 4-8 6-1 3-5-1-5-9-2-2h-11l-5 4-3 1-5 5-1 3-3 1-9 11-5 7v2h-2l-6 11-3 3-1 5h-2l-6 14-3 9v15l5 10 15 36 10 26 14 36 11 27 7 19 2 7 7 18 5 13 7 21 7 19 7 20 3 12 4 9 4 12v6l-4 4-5 12-7 12-5 13-3 14v11l3 10 7 10 5 6 8 7 3 3h2l-5 16-7 20-3 11-5 12-6 16-10 26-6 13-8 19-8 18-5 10-11 23-8 15-8 16-10 18-8 12-11 16-10 17-5 8-12 22-8 15-8 16-4 11-6 12-6 16-4 16-4 23-1 25 1 3 1 13 2 12 3 12 4 15 7 15 9 16 10 15 11 13 10 12 24 13 16 7 12 4 7 3 27 6 50 7h51l6-1 23-1 27-4 36-9 10-4 30-16 10-5 10-7 11-6 23-23 6-1 27-1 15-2h20l13-1 1-1 31-1 36-2 62-2 32-1 19-1h20l5-1h19l6-2v2h21l1-1h112l2 1 47 1 27 1 48 3 28 1 11 2 25 2 6 1 20 1 3 1 14 1 16-16v-7l-10-19-11-21-7-10-3-6 5-2 11-9 5-5-1-7-1-5-9-17-7-12-4-8-5-8-8-14-6-9-9-17-1-4h-2l-1-5-4-9-2-9-3-4-4-21-5-18-2-5-5 2-4 3 1 6 2 9v5l-3 3-7 4-12 13-11 7-17 9-18 11v2l-7 2-7 4v2l-5 1-4 2v2l-9 3-2 1v2l-7 2-10 8 2 6 8 15 4 9h2l2 8 4 9h2v3h2l2 7h2l2 7 1 2h2l2 5h2l2 7h2l1 5h2v3h2v3l4 4 6-1v-2l9-3 4-2 5-5 7-3v-2l6-2v-2l5-2 10-5v-2l5-2 3-1 4-4 3-1v-2l4-2 6-4 3-1v-2l5-2 7-4v-2l5-2 6-5 3-1 1-2 3-1 2-2 3 8 3 3 2 7h2v6l-6 2v2l-4 2-3 1v2l-10 5v2l-5 2-2 1v2h-3v2h-3v2l-5 2-3 1v2l-5 2-3 1v2l-5 1v2l-5 1-2 1v2l-5 1v2l-4 1-4 2v2l-5 1v2l-5 1v2l-7 2v2h-3v2l-5 1v2l-5 1-2 1v2l-9 3v2l-9 3-11 6-6 3v2h-3v2h-50l9-5 4-1v-2l7-2v-2l6-2 7-3v-2l7-2 4-4 2-17-6-12h-2l-2-8-4-9h-6l-24 12-5 2v6l2 5 2 13v10l-3 19-1 5h-24l4-6v-2h2l3-7 1-5v-19l-3-7-2-4-14-2 1-4 4-9v-4h-2l-1-4-6-5-4-4-5-3-12-3h-11l-16 7-1 4 6 13 3 7 10-2h13l9 8 1 3-6 2-7 6-1 2v10l1 4-3-1-2-6-4-2 1 5 3 9 7-1 3-1v-2l4-2 3-5v-14l3 1 1 4v9l-4 8-8 6-7 2 3 10 1 4-8-1-7-20-3-9-5-12-4-12-7-15-5-12-7-15-5-11 9-3 20-9 25-11 10-4 16-7 18-8 20-9 5-2h16l14-5 19-8 17-7 8-5 13-8 7-4 12-10 4-6 2-8 1-14 10-7 16-10 9-11 3-6 1-7 1-5 1-8-1-16-2-9-1-7-3-7-6-18-9-17-11-18-11-13-9-11-7-6-2-3-1-11-1-8-2-15v-7l-1-2-1-16-2-15-1-2-1-14-1-4 11-3 13-5 13-7 8-7 7-5 9-11 7-8 9-16 7-16 6-21 3-24v-21l-3-20-1-1-3-15-6-16-11-20-4-7-10-13-15-15-16-11-16-8-16-5-19-3-6-1-7 1-11 1-24 9-13 7-8 8-9 6-8 10-7 10-7 12-8 18-2 7-1 8-1 1-2 18-1 1-1 21 2 14 1 13 3 11 5 15 3 8 8 16 6 10 13 16 13 13 15 11 16 8 15 5 8 2h9l3 46 2 6h-2v5h2v17l-8-2h-16l-10 3-6 4-9 7-10 9-2 2-4-1-5-3-5-2-10 3-12 7-3-1-10-13-14-21-14-20-7-11-1-3 9-3 14-7 6-6-1-5-6-11-9-10-7-8-9-10-13-13-11-9-9-7-6-4 1-20 1-37 1-25v-38l-1-50-2-48-3-60-1-13-1-9-2-29v-11l-1-2-5-53-2-12-3-28-6-38-4-16-6-8-11-8-37-19-16-6-22-7-14-4-9-1-15-4-11-2-18-2-17-1-6-1h-14l-5 1-3-2h-4v2l-11-1h-6l-6 1-2-2z" fill="#FCFBFA"/>
<path transform="translate(439,777)" d="m0 0 5 2 10 7 11 9 20 18 8 7 14 14 8 7 13 14 7 8 10 12 5 12 6 21-5 1h-22l-14 2-22 6-9 4-5 2-2 4-3 3-4 8-1 3v15l6 19 5 17 3 9 3 12 2 19v10l-4 10-8 7-12 3-24 4-17 5-10 4-16 7-18 11-12 8h-2v2l-5 3-3 3h-2l-1 3-8 7-8 9h-2l-2 4-3 5 1 7 2 3 5-2 12-12 2-3h2l2-4h3l2-4 4-1 2-4 3-1 4-4h3v-2h3l1-3 14-8 9-3v-2l12-5 5-1v-2l15-5 38-7 10-3 4-1v-2l3-1 4-5h2l1-4h2l1-5 2-4v-23l-6-25-2-13-10-35v-9l3-5h2v-2h12l17 2 3 2 10 2 20 8 20 11 14 10 10 8 10 9 11 11 8 10 10 14 6 9 3 7 6 13v2h2l6 16 4 15 2 14v6h2l1 20v28l-3 24-5 19-7 20-2 6h-2v5l-7 15-5 10h-2l-1 6-4 7-5 8-3 3-3 7-10 16-12 16-5 6h-2l-2 5-5 6-4 4h-2l-1 4-14 14-9 7h-2l-1 3-4 2-2 3-3 1-5 5-5 2-5 5-16 9-13 4-15 2-15 1h-39l-25-4-34-7-26-8-19-8-14-8-9-7-16-16-10-14-9-15-6-12-7-21-4-21-1-10v-29l1-4 2-19 4-16 6-17 3-8 5-13 8-16 17-29 11-18 11-19 8-12 11-18 6-11 21-41 15-32 14-33 13-31 11-28 12-36 8-27z" fill="#4C424A"/>
<path transform="translate(785,245)" d="m0 0h68l32 3 35 6 30 8 4 2v-9l4-6 6-3 5 1 5 6 4 15 3 14v9l4 17 5 40 3 41 2 17 6 90 3 81 1 42v51h-3l-7-16-12-18-7-9v-2h-2l-1-3 4-1v-23l-2-18-4-12v-2h-19l-6-16-4-6-30-2-11-13-4-4v-2l2-1 23-2 10-2-2-10-8-14-12-17-10-11-7-8-11-9-13-9-21-11-20-7-4-17-5-10-7-7-10-5-8-2h-11l-10 3-9 6-6 8-4 10-1 4v15l-18 10-14 9-13 11-10 9-9 10-10 14-9 14-11 21-6 15v8l1 2h18l25-4 15-2-2 5-7 13-4 2-24 3-5 3-3 8-2 14-1 1-16 1-2 1-2 10v23l4 20 1 8-10 11-8 13-8 17-6 17-5 24-2 18v35l-7 5-5-1v2h-2l-1 5-12 12-7 10h-2l-7-12-2-4 8-11-1-7-8-12-11-12-9-9-4-7-9-41-14-56-11-43-17-62-7-26-11-38-14-48-12-38-17-51v-5l23-13 15-7 10-2 7-6 15-3-1-5-4-4-2-5v-6l6-9 8-4 3-1h9l6 4 5 8 1 6 28-9 32-10 24-6 28-6 57-10 35-5 35-3z" fill="#AA0A1F"/>
<path transform="translate(916,862)" d="m0 0 4 1 4 12 5 9 9 10 10 6 13 5 14 1v3l-11 2-5 2v2l-6 5-1 2 4 1 7-6 11-4 3 1 1 9v15l5 14 2-6 1-12v-18l-3-16-3-11-5-11-4-10 7 1 15 7 8 6 3 8 2 19 1 1h16l10 2 6 4 4 3 5 11 2 7v6l-2 4h-2l-2 4-2 3h-2l-2 6-2 4v9l-7 9-22 22-7 8-11 12-8-1h-14l-6 3-4 3h-2l-2 4-4 5-19-1-12 3-10 5-6 5-5 5-12 3h-3v2h8l6 4 3 4h2l6-10 7-6 7-4 8-2h12l14 1 2-5 7-8 7-2h10l9 5 5 8 1 2v14l-4 10-6 7-5 2-2 6-2 13-3 9-5 9-5 7-10 6-6 1v2h-7l-1 12-4 12-4 5 1 4 11 17 13 24 5 8 10 22 10 29 7 20 5 12 1 8-33 1-8-3-15-10-3-3v-6h-2l-4-17v-5l-15 5-7 3-15 4h-22l-20-7-20-12-6-4-16-2v11l-5 19-6 2v2l-4 2-1 2-11 4-12 5-22 7-20 4h-6l1-7 5-13 10-16 8-14 9-13 9-11 8-12 13-16 8-10 9-10 15-16 5-5 1-5-4-6-1-3-3-1-2 4-13 6-9 2h-16l-10-3-8-4-1-3h-3v12l-3 19-6 25-4 16-3 7-4 10-9 19-15 25-22 33-1 1h-8l2-5 8-11 10-16 7-11 4-6 6-11 7-14 7-17 5-14 4-13 3-10 2-12 2-23v-15l-1-2-3-25-2-10-6-20-3-7-3-10-12-25-12-20-6-8v-2h-2l-9-13-5-5v-2l-3-1-6-7v-2l-4-2-8-8-11-9-19-14-17-10-15-7-15-6-22-7-15-2h-30l-12 3-8 3-13 7-7 8-1 2v15l10 30 6 21 4 23v13l-2 8-4 6-9 8-4 2-15 2-2 1-13 1-16 5-14 5-11 5-22 12-18 11-6 5-5 5-8 7-9 10-6 7h-1l1-7 5-7 16-16 5-4h2l1-3 5-2v-2l22-14 14-8 17-7 15-5 17-4 24-4 6-4 4-5 3-8v-10l-2-19-6-21-6-19-5-17v-15l4-9 3-5 7-6 8-4 21-6 9-2 9-1h15l20 3 21 6 18 7 17 9 14 7-3-7v-12l5-8 8-6 10-6h3l4 21 5 17 11 25 9 14 11 13 6 5-2-7h2l-2-6v-13l7-11 5-6 4-1 1-3-10-3h-16l-13 2-1-1v-5l18-6 10-6 5-4 7-11 3-12v-19h4l6 16 7 11 8 7 11 5 9 2h12v5l-8 1-10 6-5 6 4 1 3 2 1-4 8-5 5-2h3v25l-1 1v6l2 3v8h2l2-9 2-14v-31l-3-17-6-24v-3l9-1 2-1 31-3 32-4h10l3 13 7 25 10 23 9 15 6 9 11 13 4 3-3-7v-3h2l-1-5v-9l5-10 6-7-8-5-10-3h-16l-1-4 12-5 11-8 6-9 3-10v-19z" fill="#6C5442"/>
<path transform="translate(803,499)" d="m0 0h25l15 3 15 5 19 10 6 4v2l4 2 12 11 7 9v3l3 1v2l10-1h19l2 3 2 7 4 10v3h18l3 2 2 8 1 17v14h-14l1 3 5 5 11 12 9 12 7 12 7 15 3 7v5h2l2 8 1 11v19l-1 17-7 7-3-1-4-10v-2l-15-1-23-3h-69l-26 2-22 2-20 3-7 2-16 2-7 2-21 4-27 7-14 4-5 2-9 3-11 3-30 12-11 5-6 2-5 17-2 6-7-2-12-5v-2l-7 3-12 7-12 9-5 3 2-4 10-11 15-11h2v-26l2-27 5-24 6-18 11-23 11-14 6-7-4-19-2-7v-21l1-8 13-1 3-1 2-5 4-19 1-1 10-2h10v-2l5-2 10-1 9-17 4-6 9-11 14-12 11-7 16-8 22-6z" fill="#BB8D4D"/>
<path transform="translate(561,307)" d="m0 0 8 1 10 4 2 4 5 2 9 7 4 1 4 6 5 2 1 6 3 1 6 5 2 6-1 6h7l4 3 10 1 3 11h-3l-2 7 1 4 1 3 3 1v2l5 1 1 2 6 1h3v7l1 3-1 2h4v3h7l2 2v3h8l4 3 1 8-2 5 2 4 5 2v2h2v6l-5 4-1 1-3 8v7l-1 4v6l7-2 3-6h2l1-2h2v-2l3 1-2 4-8 9-10 14-9 14-11 21-6 15v8l1 2h18l25-4 15-2-2 5-7 13-4 2-24 3-5 3-3 8-2 14-1 1-16 1-2 1-2 10v23l4 20 1 8-10 11-8 13-8 17-6 17-5 24-2 18v35l-7 5-5-1v2h-2l-1 5-12 12-7 10h-2l-7-12-2-4 8-11-1-7-8-12-11-12-9-9-4-7-9-41-14-56-11-43-17-62-7-26-11-38-14-48-12-38-17-51v-5l23-13 12-6h6l1 4-1 4 2 1v3l1 5h2v3l4 2 5 7 7 24 9 33 5 1-5-21-6-22-3-8v-3l8-3 10-3 1-4 4-1h4v2l4 1 5 2h7l2 1 7-2 5-3 1-2h3v-2h3v-2h2l2-12-2-12z" fill="#BB1729"/>
<path transform="translate(365,327)" d="m0 0 7 1 4 7 4 9v4l3 1 1 2 4-2 14-11 8-4 5 1 5 13 7 20 4 12 3 12 3 7 2 8 8 26 3 9v5h2l4 15 8 28 5 17 4 15 3 10 4 13 7 24 3 13 3 9 9 36 3 8 6 26 5 18 2 7 1 7 1 1 2 11 3 13 3 9 1 10 2 3 4 19 1 3 4 2 12 13 7 8 6 8-2 4-10 10 1 4 7 6 8 13-1 4-8 10h-2l-1 4-6 9-3 5-5-4v-2l-3-1-7-8-1-3h-2l-7-8-8-8-4-5-8-7v-2l-4-2-7-7-8-7-26-22-15-11-10-5-2 10-3 13-3 7-5-3-9-9-4-5v-2h-2l-3-6v-8l5-21 10-20 4-6 9 1-2-16-7-21-1-1-2-11-4-10-3-10-3-6-2-7-14-40-4-13-5-12-5-14-5-11-5-17-6-14-6-15-4-11-4-10-4-8-5-14-3-8-6-14v-3h-2l-5-12-4-10 1-11 8-18 7-13 9-12 11-13 8-8z" fill="#F0D4AC"/>
<path transform="translate(740,134)" d="m0 0h65l30 2 28 4 40 8 25 7 18 6 12 5 10 4 16 8 14 9 11 8 11 11 8 12 5 13 5 24 4 24 3 21 1 6 5 45 2 21 2 28 3 36 1 18 1 9 2 31 2 21 1 3 5-1 4-5h2v-2l10-8 14-10 12-7 23-9 19-5 15-3h30l28 4 24 6 15 6 10 6 10 7 8 6 11 9 8 8v2l3 1 6 8 8 11 9 15 8 17 7 19 5 22 3 24 1 18v32l-4 27-3 15-4 13-6 15-9 17-6 9-4 7-11 13-8 8-15 11-10 7-4 5-1 3v10l3 10 6 9 5 6v2h2l14 20 10 18 10 19 5 15 4 16 4 26 1 26v19l-2 16-5 18v17l6 16 12 23 3 4 6 11 8 14 15 26 7 18 2 11 2 22v12l1 14 4 18 3 14 1 9v29l-4 15-9 18h-2l-2 4-8 6-10 5-19 4-20 1h-19l-43-4-46-3-34-1-36-2-40-1-13-1h-93l-20 1-66 1-23 1-7 1-40 1h-22l-21 2-24 1-14 1-33 1-33 2-11 3-7 6-9 7h-2v2l-15 10-17 10-17 8-15 8-13 5-27 8-23 5-30 4-40 3-14 1h-28l-27-3-33-4-23-4-24-6-9-2-22-10-11-4-14-7-11-7-13-12-10-11v-2h-2l-3-4v-2h-2l-12-17-12-23-7-14-6-16-2-10-2-7-4-22-1-8-1-31v-10l2-22 4-25 4-19 9-27 13-30 12-23 13-23 12-21 10-15 7-10 6-11 8-14 9-17 11-23 8-16 20-42 6-15 10-24 5-14 2-7v-9l-2-9-6-17-2-9-1-11v-24l1-13 4-17 4-13 2-8 1-3v-10l-2-9-9-27-11-30-8-21-3-10-4-10-7-19-11-27-5-13-5-12-5-13-5-12-13-33-6-19-1-9-1-8v-21l2-18 5-20 6-14 6-11 10-15h2l2-4 8-11 4-5h2l1-3 14-10 12-6 12-3 21-4 14-6 13-10 10-7 17-11 10-6 11-6 15-8 19-9 14-7 10-4 21-9 15-6 29-10 29-9 46-11 27-5 41-5 6-1zm-6 11-30 3-7 1-30 4-3 1v2l-2-1h-8l-28 6-40 11-37 12-33 13-33 15-32 16-17 10-18 11-16 11-15 11-2 1v2l-11 3-5 1h-10l-6 3h-10l-14 7-9 7-7 7-4 6-13 18-9 15-8 17-4 14-1 12-1 5-1 1v16l2 11 2 13 6 17 11 27 26 66 9 23 15 41 11 30 16 46v15l-7 19-4 16-2 15v28l3 16 5 13 5 10v14l-5 15-11 28-16 37-13 28-33 66-12 19-17 26-11 19-10 18-15 29-11 25-9 25-5 22-2 11-1 12-1 2-1 20v16l2 25 4 23 4 17 7 19 13 25 11 17 7 9 11 12 11 11 14 9 23 11 23 9 23 6 38 7 49 6h39l5-2h11l19-1 4-1 21-2 19-3 28-7 19-6 16-7 16-8 15-8 24-16 10-8 7-7 13-4 23-1 1-1 59-1 5-2 42-1 1-1 25-1 48-1 3-1 98-1 3-2h87l4 2 73 2 15 1 45 1 2 1 32 2 5 1 35 3h40l17-3 13-5 9-8 6-10 4-13 1-9v-19l-3-17-4-14-3-5-1-9-1-45-5-19-9-19-16-27-17-29-6-12-7-20-3-12 7-20 3-14v-54l-5-24-5-16-7-18-12-22-8-12-11-14-8-10-6-12-1-3-1-18-2-5 6-8 15-9 16-12 8-8 8-10 10-15 12-25 5-15 5-22 1-13 1-2 1-18v-25l-1-13-2-3v-14l-4-17-8-23-9-20-9-15-12-16-14-14-16-12-15-9-17-7-15-4-14-2-2-1-15-1-5-2h-16l-6 2-14 1-21 5-20 8-18 10-9 8-8 7-9 10-12 17-4 8h-3l-3-8-1-57-1-1-1-30-1-12-1-1-1-36-2-5-1-31-2-4v-12l-2-13-1-15-2-6v-10l-1-11-1-2-2-17-1-2-2-17-6-29-5-14-8-11-10-9-19-11-14-8-12-5-19-7-25-8-14-4-25-5-28-5-20-2-5-1z" fill="#DEDEDE"/>
<path transform="translate(1194,528)" d="m0 0 17 2v2h9l8 4 20 12 12 11 11 11 2 4 2 1v3h2l1 4h2v3h2l11 22 2 7 3 8 2 8 2 7 1 11v34l-4 24-6 17-6 12-5 7-4 7-11 12-10 10-8 5-11 6-13 4-9 1-1 1h-25l-12-2v-2l-8-1v-2h-5l-6-3v-2l-5-1-14-8-2-4-8-6-7-8-11-15-9-17-5-11-5-18-3-13-1-24 1-22 2-13 3-8 2-7 5-13 6-11h2v-3h2l2-5 3-3 3-5 12-12 4-1v-2l13-8 16-7 14-2z" fill="#FCD479"/>
<path transform="translate(916,862)" d="m0 0 4 1 4 12 5 9 9 10 10 6 13 5 14 1v3l-11 2-5 2v2l-6 5-1 2 4 1 7-6 11-4 3 1 1 9v15l5 14 2-6 1-12v-18l-3-16-3-11-5-11-4-10 7 1 15 7 8 6 3 8 2 19 1 1h16l10 2 6 4 4 3 5 11 2 7v6l-2 4h-2l-2 4-2 3h-2l-2 6-2 4v9l-7 9-22 22-7 8-11 12-8-1h-14l-6 3-4 3h-2l-2 4-4 5-19-1-12 3-10 5-6 5-5 5-21 4-13 2-12 1-5 1-7-3-5-2-9-1-1-1-24-1-3-2-1-10h-2l-3-9-6-11-10-10-5-3-3-3-7 1-3 2h-5l3-3 11-8 5-4 9-14 4-12 2-14v-31l-3-17-6-24v-3l9-1 2-1 31-3 32-4h10l3 13 7 25 10 23 9 15 6 9 11 13 4 3-3-7v-3h2l-1-5v-9l5-10 6-7-8-5-10-3h-16l-1-4 12-5 11-8 6-9 3-10v-19z" fill="#FCFBFA"/>
<path transform="translate(890,736)" d="m0 0h52l40 4 4 4 4 9h7l7-5 1-2 10 2 1 3 4 2 7 6v2l4 2 19 19v2l4 1 5 8-5 3h-7v2l-36 10-30 7-34 7-64 10-38 5-45 5-67 5-26 1-48 1h-29l-38-1-17-1-5-1 2-4 12-11 14-10 20-12 4-1 19 7h6l4-8 5-18 14-6 34-12 26-8 30-8 32-7 43-7 40-4z" fill="#343535"/>
<path transform="translate(1043,834)" d="m0 0 4 2 22 33 25 37 3 6 4 1 14-9 7-3 9 1-2 5-3 4v7l5 23 8 21 11 22 13 22 13 19 8 11 12 14 11 12 13 12 12 8h5l4-4 2 1-6 10-5 5-8 7-17 10-29 14-16 6-10 1-11-4-14-9-11-9-10-11-11-15-9-13-9-15-12-23-10-24-7-23-1-5v-19l-3 1v-6l3-3 3-5 2-1 1-9 1-5-3-4-3-10-8-2-3-3-8-3-11-1h-11l-2-2-2-19-3-8-8-6-17-7h-3l7 16 4 11 2 7 2 13v18l-1 12-3 7-2-4-4-11v-15l-1-9-11 3-6 4-3 3-5-1 3-5 3-3h2v-2l8-4h8v-3h-14l-13-5-10-6-8-8-6-10-3-7 2-10 22-3 26-5 17-4 11-2 30-8z" fill="#333434"/>
<path transform="translate(842,538)" d="m0 0h35l12 2 6 4 7 10 7 15 5 17 2 12v24l-4 19-7 19-9 15-9 10-7 7-14 10-17 8-12 3-8 1h-28l-14-3-16-7-13-8-10-8-12-12-9-12-8-16-5-15-2-15v-18l2-14 4-11 9-10 15-7 21-7 30-7 36-5z" fill="#B9BABB"/>
<path transform="translate(365,327)" d="m0 0 7 1 4 7 8 19 10 28 15 43 12 36 17 52 9 30 13 41 10 35 14 52 9 38-1 3-15-10-11-6-8-3h-6l-4 4-5 8-12-2-2-3-5-17-3-9-1-1-2-11-4-10-3-10-3-6-2-7-14-40-4-13-5-12-5-14-5-11-5-17-6-14-6-15-4-11-4-10-4-8-5-14-3-8-6-14v-3h-2l-5-12-4-10 1-11 8-18 7-13 9-12 11-13 8-8z" fill="#F0D4AC"/>
<path transform="translate(522,926)" d="m0 0h20l17 2 16 5 22 8 9 6 11 6 11 7 8 5v2l4 2 4 3v2l5 2 23 23 9 11 4 6 5 5 4 6 5 9 4 6 2 6h2l3 8 4 6 3 8 3 5 7 22 3 14 1 2 2 12 1 2 1 26-1 16-2 8-3 14-6 21-9 22-13 28-4 6-4 8-8 11-11 15-7 9-5 6-4 5-5 5-7 8-12 11-18 12h-3v2l-21 10-16 8-16 6-27 6-2-1 12-8 17-14 12-11 15-15 9-11 13-16 15-22 8-13 14-25 9-19 6-16 5-15 5-18 4-20 2-36-1-14-5-30-5-16-6-16-14-28-7-10-6-9-2-5-3-1-8-10-15-15-13-10-15-10-18-10-15-6-9-3-14-4-12-2-1-2z" fill="#FCFBF9"/>
<path transform="translate(1037,986)" d="m0 0 2 1 5 20 7 20 14 29 9 16 16 24 9 11 23 23 6 4-1 4-36 18-36 16-30 14-10 4h-8l-2-2-1-8-10-19-7-11v-2h-4l4 10 8 13 8 16 3 10 11 23 15 36 13 37 3 8v3l-3 1h-41l-2-7-6-20-10-27-8-21-15-29-10-18-15-23-2-3 2-9 2-6 13-1 6-3 10-8 6-7 7-12 6-21 6-7 7-10 4-10v-15l-4-10-5-6-2-4 4-1 2-4 5-5 14-15 8-9z" fill="#8F0F1B"/>
<path transform="translate(752,195)" d="m0 0h45l26 2 29 4 29 6 10 3 12 5 22 9 16 8 12 5 4 2v2l-6 3-3 4-1 5-9-2-31-6-21-3-32-3-18-1h-45l-37 2-34 3-42 6-41 8-48 12-39 12-14 4-4-1-3-5-7-6-5-2h-13l-10 5-5 6-2 6-1 17-16 8-27 14-16 9h-3l-6-11-1-1-7 1-9 2 4-5 11-8 16-11 15-10 20-12 16-9 19-10 33-15 27-11 42-14 28-8 34-8 44-7 25-3z" fill="#333435"/>
<path transform="translate(785,389)" d="m0 0h14l10 6 7 9 3 8v9l-2 9h10l12 3 14 7 6 2v2l4 1 4 2v2l4 1 10 8 9 8 9 11 8 9 12 18 3 6v2l-13 1-11 2h-12l-5-4-3-1v-2l-5-1v-2l-5-1v-2l-27-9-18-3h-17l-21 3-15 5-16 8-14 9-9 7-8 10h-2l-2 4-13 1-2 1-12 1-1 1-29 2 1-5 3-8 7-15 10-16 12-16 15-16 11-9 13-10 16-8 5-3 5-2 4-1-3-8v-16l7-11 10-7z" fill="#F0D4AB"/>
<path transform="translate(1183,879)" d="m0 0 10 1 6 2 2 2 4 48 5 13 3 4 3 1h9l7-6 3-6v-10l-1-19 7 6 7 10 8 11 4 7 9 17 5 13 4 9 1 12 2 3 1 10v17l-3 12-9 9-15 10-12 7-4 2-7 2h-5l-11-9-13-13-11-14-7-8-13-19-7-11-6-10-6-11-7-15-6-16-4-14v-8l13-17 3-3h2l2-4 7-6 9-6 5-2z" fill="#FCFBFA"/>
<path transform="translate(654,901)" d="m0 0h3l4 21 5 17 11 25 9 14 11 13 10 9 15 9 5 2 14 1v1h-22l-9-3-5 1 3 7 3 5 2 1v3h2v3h2l3 6v3h2l5 12v3h2l5 14 2 2 8 1v2l7 1 5 6 2 1h7l5-4 3-3 9-4 11-3 8-1h22l9 2 10 4v2l4 2-1 8-1 10 3 9v4l-15 6-8 7-5 10-1 3v16l-3 1-2 4-13 6-9 2h-16l-10-3-8-4-1-3h-3v12l-3 19-6 25-4 16-3 7-4 10-9 19-15 25-22 33-1 1h-8l2-5 8-11 10-16 7-11 4-6 6-11 7-14 7-17 5-14 4-13 3-10 2-12 2-23v-15l-1-2-3-25-2-10-6-20-3-7-3-10-12-25-12-20-6-8v-2h-2l-9-13-5-5v-2l-3-1-6-7v-2l-4-2-8-8-11-9-19-14-17-10-15-7-15-6-22-7-15-2h-30l-12 3-8 3-13 7-7 8-1 2v15l10 30 6 21 4 23v13l-2 8-4 6-9 8-4 2-15 2-2 1-13 1-16 5-14 5-11 5-22 12-18 11-6 5-5 5-8 7-9 10-6 7h-1l1-7 5-7 16-16 5-4h2l1-3 5-2v-2l22-14 14-8 17-7 15-5 17-4 24-4 6-4 4-5 3-8v-10l-2-19-6-21-6-19-5-17v-15l4-9 3-5 7-6 8-4 21-6 9-2 9-1h15l20 3 21 6 18 7 17 9 14 7-3-7v-12l5-8 8-6z" fill="#F9F8F6"/>
<path transform="translate(522,584)" d="m0 0h7l2 3v3h3l5 8 4 1v2l3 1-1 2-1-1-1 2h3l2 4 2-3 2 1v3l5 2v3l3 1 2 4-1 2 5 20v3h2l1 2 2-8 10-1 5 3 5 4 5 1 3-1v3l2 1-1 2 8-1 12-4 1-2 5 1 1-10v-3h3v-7h4l4 2 3 14 3 5-1 2h2l1 2v6h-3v2h-2l-1 4h-2v2h-2v4l2 1-6 9-9 19-6 17-5 24-2 18v35l-7 5-5-1v2h-2l-1 5-12 12-7 10h-2l-7-12-2-4 8-11-1-7-8-12-11-12-9-9-4-7-9-41-14-56-5-19 1-6 1-5-2-1h2v-2l-2-1h2l-1-5-1-9-1-3 1-5 6-1 1-4 3-2z" fill="#AA0A1E"/>
<path transform="translate(1202,1135)" d="m0 0 3 1-4 1v2l-12 6h-2v2l-9 3v2l-9 4h-2v2l-8 4-8 6 2 6 8 15 3 9h2l5 12 1 5h2v3h2l2 7h2l3 9h2l2 5h2l2 4v3h2l1 5h2v3h2v3l3 1 1 2h6v-2l10-5h3l1-3 8-5h3v-2l3-2h3v-2l12-7h3v-2l5-3h3l1-3 3-2h3v-2l10-7h3v-2l9-6h3v-2l11-8h3l1-3h3l1-3 2 1 2 5v3l3 1 2 9h2v6l-3 2h-3v2l-4 3h-3v2l-7 5h-3v2l-5 3h-2v2h-3v2h-3v2l-5 3h-3v2l-5 3h-3v2l-5 1v2l-7 2v2l-5 1v2l-6 3h-2v2l-5 1v2l-5 1v2l-7 2v2h-3v2l-5 1v2l-7 2v2l-9 3v2l-19 9-5 3h-2v2h-3v2l-4 1h-47l2-3 8-4h4v-2l4-2h3v-2l10-5h3v-2l7-3 3-3 2-17-4-8-1-4h-2l-6-15v-2l-8 2-22 11-5 1 2 7 3 17v10l-3 19-2 5h-24l4-8h2l3-12v-19l-3-7-1-4h-8l-7-2 1-4 5-13h-2l-1-4-4-2-4-5-7-4-12-3h-11l-16 7-2 2-10-23v-2l36-16 23-10 37-15 15-6 25-6 25-10 12-3z" fill="#EFD3AA"/>
<path transform="translate(809,290)" d="m0 0h42l18 3 6 3 9 10 7 7 16 10 3 2-1 5-13 13-8 6-8 5-31-1h-25l-26 1-52 5-34 6-31 6-12 1-11-5-11-7-5-5v-5l15-14 6-7 1-3h2v-3h2l1-4 3-5h2l2-4 15-6 16-4 28-4 23-3z" fill="#F1D5AC"/>
<path transform="translate(1270,1087)" d="m0 0 1 4 6 28 5 13 3 4 8 16 12 22 8 14-1 4-3 1-1 2-7 4-5 4h-2v2l-9 5-3 1v2l-8 4-3 3h-2v2l-6 3-1 2-6 3h-2v2l-12 6-3 1v2l-6 2v2l-8 4-4 4-11 5h-2v2l-6 1-4-4v-3h-2v-3h-2l-1-5h-2l-2-7h-2l-2-5h-2l-3-7v-2h-2l-2-7h-2v-3h-2l-5-11-1-6h-2l-11-23-3-5 2-4 10-7 5-1v-2l9-4h2v-2l6-3h3v-2l12-6h2v-2l27-16 15-8 12-11 5-6 8-5z" fill="#8F101B"/>
<path transform="translate(1149,574)" d="m0 0h7l10 5 9 9 8 13 6 11 8 7 5-1 6-9 6-8 2-1h18l10 4 6 4 7 10 6 19v12l-1 4-11-2-14-3-7-2h-2v6l8 5 13 3 13 1 2 1-1 17-3 13h-12l-10-2-19-6h-3v5l7 5 13 4 9 2h12l-1 5-7 16-9 10-7 7-5 2-13 1-16-3-11-4-13-7-9-8-6-14-6-27-1-13-5-24-7-21-9-19v-9l6-10 7-6z" fill="#FDFCFA"/>
<path transform="translate(916,862)" d="m0 0 4 1 4 12 5 9 9 10 10 6 13 5 14 1v3l-11 2-5 2v2l-6 5-1 2 4 1 7-6 11-4 3 1 1 9v15l5 14 2-6 1-12v-18l-3-16-3-11-5-11-4-10 7 1 15 7 8 6 3 8 2 19 1 1h16l10 2 6 4 4 3 5 11 2 7v6l-2 4h-2l-2 4-2 3h-2l-2 6-2 4v9l-7 9-22 22-7 8-11 12-8-1h-14l-6 3-5 3-4-4-4-10-3-13v-13l2-2 5-1-16 1-13-5-11-7-2-6-2-4v-3h2l-1-5v-9l5-10 6-7-8-5-10-3h-16l-1-4 12-5 11-8 6-9 3-10v-19z" fill="#F8C3AF"/>
<path transform="translate(881,1152)" d="m0 0 4 5 4 4v2l4 1v2h5l4 2h13l7-1 2 13 6 14 10 27 7 31v7l-17 3-6 3-16 6-15 4h-22l-20-7-20-12-6-4-4-1h-15l-13 3 1-5 5-9 12-21 24-38 4-8 1-4 13 1 10-3 10-6z" fill="#FDFCFB"/>
<path transform="translate(1043,834)" d="m0 0 4 2 22 33 25 37 3 6 4 1 14-9 7-3 9 1-2 5-3 4v7l1 4v7l-9-2-11 5-12 8-13 11-11 9-14 14-6 5h-3l-1-17-3 1v-6l3-3 3-5 2-1 1-9 1-5-3-4-3-10-8-2-3-3-8-3-11-1h-11l-2-2-2-19-3-8-8-6-17-7h-3l7 16 4 11 2 7 2 13v18l-1 12-3 7-2-4-4-11v-15l-1-9-11 3-6 4-3 3-5-1 3-5 3-3h2v-2l8-4h8v-3h-14l-13-5-10-6-8-8-6-10-3-7 2-10 22-3 26-5 17-4 11-2 30-8z" fill="#2E1413"/>
<path transform="translate(721,884)" d="m0 0h4l6 16 7 11 8 7 11 5 9 2h12v5l-8 1-10 6-5 6 4 1 3 2 1-4 8-5 5-2h3v25l-1 1v6l2 3v6l1 5-7 11-5 5-9 8-7 4 6-1 4-2 6 1 3 4 5 3 9 9 8 15v5h2l2 10 2 2-16 3-20 10-3 3-7-5v-2l-21-2 1 6-2-2-3-12h-2l-5-13v-2h-2l-3-9h-2v-3h-2v-3l-3-1-5-8-1-5 6-1 9 3h8l-14-7-10-7-2-9h2l-2-6v-13l7-11 5-6 4-1 1-3-10-3h-16l-13 2-1-1v-5l18-6 10-6 5-4 7-11 3-12z" fill="#4E6CA6"/>
<path transform="translate(858,545)" d="m0 0h10l15 2 8 4 5 6 5 11 5 15 3 19v13l-2 16-5 16-8 16-10 13-12 12-15 10-15 6-15 3h-22l-21-5-16-8-11-8-10-9-11-13-10-19-5-16-2-12v-16l2-14 5-10 8-6 16-7 10-3 4 1-13 12-5 12-3 11-1 10v10l4 17 6 14 7 10 7 8 16 11 13 5 16 3h14l14-3 16-8 11-8 8-8 9-13 5-13 3-14v-13l-1-12-4-10v-2h-2l-2 5-6 7-8 4-5 1h-12l-12-6-8-8-5-10-1-4v-12l4-10 9-2z" fill="#FCFBF8"/>
<path transform="translate(410,334)" d="m0 0 5 1 5 13 7 20 4 12 3 12 3 7 2 8 8 26 3 9v5h2l4 15 8 28 5 17 4 15 3 10 4 13 7 24 3 13 3 9 9 36 3 8 6 26 5 18 2 7 1 7 1 1 2 11 3 13 3 9 1 10 2 3v10l-6 5h-2l-2 4-4-2-10-8-9-7-1-5 8-10-1-9-16-63-13-48-13-43-12-40-17-54-12-36-16-47-12-31-2-9 11-9z" fill="#F0D4AB"/>
<path transform="translate(815,1150)" d="m0 0 4 1 4 8 1 5-5 4-7 8-11 12-10 11-7 9-11 14-11 16-10 12-8 13-9 16-6 9-6 16-1 4 21-4 21-6 17-6 8-4h4l2-4h3v-2l5-2 5-19v-9l1-2h12l7 3 18 11 7 4 18 6 20 1v1l-17 1-1 6 15 1 7 20 1 5h-16l-20 1-1-4-8 4-2-1 3-3 5-13 2-5 1-5-5-2-23-12-3-1-3 9-7 16-4 10-3 5h-2v2l-8 2-10 2-32 2-38 2h-35l5-9 8-12 11-17 14-24 9-20 6-16 6-25 4-16 3-27h3l4 4 10 4 5 1h16l9-2 14-7z" fill="#1B0B0A"/>
<path transform="translate(803,499)" d="m0 0h25l15 3 15 5 19 10 6 4v2l4 2 12 11 7 9v3l3 1 11 26 4 18 1 10v12l-2 17-5 17-7 15-7 12-12 14-8 8-10 7-1 2-11 5-46 5-21 3h-8l-16-6-19-10-11-9-13-13-12-18-6-13-5-16-2-15v-18l3-19 6-18 8-15 4-6 9-11 14-12 11-7 16-8 22-6zm39 39-29 3-25 4-32 8-21 8-9 5-8 9-4 11-2 14v18l3 19 6 16 8 14 11 13 11 11 13 9 15 8 11 4 11 2h28l16-3 13-5 11-6 13-10 12-12 8-13 6-12 6-20 2-11v-24l-4-20-6-16-6-11-7-9-8-3-8-1z" fill="#F1D5AC"/>
<path transform="translate(1062,797)" d="m0 0 3 1 7 12-3 3-16 7-10 3-9 3-8 3-11 2-14 4-18 4-7 2-13 2-12 2-11 3-21 3-21 2-16 2-1 1-13 1-11 3-50 6-28 3-38 3-28 2h-11l-4 1-31 1h-69l-37-4-8-2 2-5 1-2h2l1-4 3-6 56 3h61l65-3 61-5 52-6 52-7 31-5 25-5 16-3 30-7 25-7 10-3 12-5 4-1z" fill="#EED2AA"/>
<path transform="translate(513,921)" d="m0 0 3 2 1 3-5 2-3 2 20 4 14 4 13 6 16 8 16 10 14 11 10 9 12 12 5 7 3 3 7 10 5 7 6 11 8 15 5 11 6 18 4 16 4 24 1 18-2 32-4 20-5 18-9 27-7 15-11 21-14 24-8 11-9 13-14 17-9 11-22 22-11 9-14 11-7 4v2l-8 1-13 2-4-1 3-2 19-11 2-3 8-4 2-3 3-1 3-4 3-1 3-3 11-9 12-12 1-3 8-7 5-8 5-5 9-11 13-20 3-5 3-7 3-3 5-9 4-9h2l2-6 8-18 2-6h2l1-6 9-27 4-18 2-18v-48h-2l-4-24-5-17-3-6v-4h-2l-8-17-4-8-11-16-8-10-11-12-9-9-17-13-15-10-17-9-21-8-7-1-3-2-29-3v2l-3 3-1 2v9l8 27 3 11 2 14 5 21v23l-4 9h-2l-1 4-5 5-4 1v2l-10 4-24 5-21 4-8 3h-4v2l-15 6h-2v2l-16 8-7 4-1 2h-3v2l-6 2-1 3-4 2-1 2-5 3-1 2-4 2-7 8-8 7-5 5-3-1-2-4 3-5 11-13 5-5 6-5h2l2-4 13-9 19-11 10-6 13-5 12-5 12-4 7-2 13-1 10-2 9-2 9-7 4-5 2-4 1-6v-13l-5-27-11-35-4-12v-15l4-6 8-7 6-2-1 3 7-3 8-3z" fill="#1B161A"/>
<path transform="translate(804,556)" d="m0 0h8v22l4 12 8 11 9 5 8 3h19l8-2 6-2 5 1 2 4v10l-4 12-5 10-8 10-9 7-15 7-7 2-15 1-13-2-13-5-10-7-6-5-8-10-6-11-2-9v-20l4-12 6-10 9-10 10-7 11-4z" fill="#9A9799"/>
<path transform="translate(1148,562)" d="m0 0h10l7 3 9 6 8 8 10 14 6 10 8-10 7-5h18l16 5 10 6 8 9 6 13 4 17 1 6v27l-3 19-4 15-7 16-9 13-8 9-9 6-7 3h-22l-21-5-16-8-11-8-6-8-4-10-5-19-6-40-5-20-11-24-4-9 1-10 6-11 9-10 8-6zm1 12-8 5-6 7-3 6v9l10 22 7 21 5 27v7l7 30 6 12 9 8 19 9 12 3 9 1 12-1 6-3 13-13 6-12 4-9-1-3h-11l-17-4-10-5-2-2v-5l7 1 17 6 8 1h12l3-13 1-17-2-1-19-2-11-4-4-3v-6l7 1 10 3 14 3h3l1-4v-12l-6-19-7-10-8-5-8-3h-18l-5 4-8 13-2 2-5-1-7-6-11-20-11-12-8-5-3-1z" fill="#B5732C"/>
<path transform="translate(789,307)" d="m0 0h60l16 2 11 12 10 7-1 5-6 5-12 1-43 1-32 2-63 6-35 5-18 4-9-1-2-4 5-5 6-7 1-2h2l2-5 3-5h2l1-5 3-2 24-5 27-4 37-4z" fill="#AB1020"/>
<path transform="translate(516,916)" d="m0 0h30l15 2 25 8 21 9 8 4 18 11 21 16 15 14 5 5 5 6 5 5 7 8 4 6v2h2l14 21 4 8 8 15 7 16 3 11 4 10 3 11 4 24 1 11 1 2v15l-2 23-2 12-9 30-4 10-11 25-7 11-4 8-6 9-16 25-7 10-7-1-3-4-15 15v-3l5-5 7-9 7-8 9-13 8-11 6-9 12-24 10-22 7-20 4-14 3-14 2-8 1-22-1-20-2-5-1-9-2-5-3-13-6-20-5-9-3-7-3-4-1-7h-2l-6-11-5-7-4-8-5-5-13-17-3-3v-2l-4-2-17-17-4-2-5-5-3-2v-2l-5-2-16-10-18-11-30-11-8-2-17-2h-20l-5 1h-7l6-3-3-3-11 2-9 4h-2l1-4 5-3 9-3z" fill="#21100E"/>
<path transform="translate(1118,926)" d="m0 0 7 1h3l3 14-1 7 1 2h-2v8l3 5-1 6 3 7-2 10h2l3 5 3 13v3h2l3 5v2l2 1v2l1 2 3 1 7 15-1 5-7 1v-2l-4-2v-2l-4 1-4-1-3-7-1-4-9 1-7-3-1-4h-2v-2l-4 1-3-2-1 3-3-3v-3l-5-2-7-3-6 1-2-1-6 2-3-2v-2l-9 4-3 7-5 1-9-27-2-9v-17h1v15l5-3 12-11 9-9 11-9 14-11 9-6z" fill="#2B2E35"/>
<path transform="translate(971,1032)" d="m0 0h10l9 5 5 8 1 2v14l-4 10-6 7-5 2-2 6-2 13-3 9-5 9-5 7-10 6-6 2h-8l-7-16-6-5-11-5-12-1 3-12-2-12-4-8 1-7 6-9 10-8 11-3h12l14 1 2-5 7-8z" fill="#FCFBFA"/>
<path transform="translate(916,862)" d="m0 0 4 1 4 12 5 9 9 10 10 6 13 5 14 1v3l-11 2-5 2v2l-6 5-1 2 4 1 7-6 11-4 3 1 1 9v15l4 11 1 5-4 10-6 9-10 8-6 3-16 3-9-1-16-8-4-4-4-9v-3h2l-1-5v-9l5-10 6-7-8-5-10-3h-16l-1-4 12-5 11-8 6-9 3-10v-19z" fill="#4D6BA6"/>
<path transform="translate(439,777)" d="m0 0 5 2 10 7 11 9 20 18 8 7 14 14 8 7 13 14 7 8 10 12 5 12 6 21-5 1-25-1-2-6-4-4v-2h-2l-9-11-27-27-14-11-17-11-21-12h-4l2-9 10-36z" fill="#39343D"/>
<path transform="translate(696,571)" d="m0 0h3l-4 18-2 12v17l2 15 6 21 6 14 9 14 12 14 10 9 15 10 15 7 3 1v2l-26 6-5-1-11-7-16-12-5 1v2l-10 6h-3l-7-9-9-13-8-15 14-8 1-1-1-9-8-22-11 1h-10l-3-8-1-6v-21l1-8 13-1 3-1 2-5 4-19 1-1 10-2z" fill="#F1D5AC"/>
<path transform="translate(873,1069)" d="m0 0 11 2 6 3 6 8 2 6v8l-4 12 1 5 1 1 18 1 10 5 5 6 2 7v10l-3 6-5 5-9 5h-11l-8-4-7-8-3-6-6-1-4 3-3 6-6 7-8 4h-14l-9-5-7-8-2-7 1-8 5-8 12-6 4-1 14-1 1-6-7-8-2-4v-12l3-8 4-4h3v-2z" fill="#F0D4AB"/>
<path transform="translate(381,348)" d="m0 0 3 3 4-2 3-1 10 26 13 36 12 36 17 52 9 29 12 40 14 47 20 76 8 32v5l-8 10 1 5 20 16 3-1 5-5 4-2 1-4 2 8v5l-9 10-5 3-9-7-13-11-12-9-2-2 1-6 7-10v-2l-2-1v-2l-5-2-11-7-17-10-3 3-6 11-4 1-11-5-6-1 3-1v-10l1 2 12 1 6-10 3-2 9 1 9 4 18 11 4 3-3-15-12-48-10-36-13-44-14-44-10-33-25-75-14-40-6-16-4-10z" fill="#BB8D4C"/>
<path transform="translate(754,437)" d="m0 0h3l-2 4-5 2-7 4-8 6 1 4 9 11 8 8 10 8 8 6 5 5-15 7-14 8-16 12-8 10h-2l-2 4-13 1-2 1-12 1-1 1-29 2 1-5 3-8 7-15 10-16 12-16 15-16 11-9 13-10 16-8z" fill="#F0D4AC"/>
<path transform="translate(919,550)" d="m0 0h19l2 3 2 7 4 10v3h18l3 2 2 8 1 17v14h-19l-3 26-1 6 6 2 13 2-1 10-4 16-6 14-4 4-12-5-7-1-7 7-7 8-9 8h-25l6-7 11-11 6-8 1-2h2l1-4h2v-3h2l2-5 6-11 5-12 4-18 1-7v-24l-3-17-7-21-4-8z" fill="#F0D4AB"/>
<path transform="translate(491,937)" d="m0 0h12l17 2 3 2 10 2 20 8 20 11 14 10 10 8 10 9 11 11 8 10 1 5-2 1-9-3-3 1-1 3-4-1-15-10-13-8-16-8-13-5-16-4h-12l-11 4-6 7-3 8-1 8-2-4-6-24-6-19-2-8v-9l3-5h2z" fill="#62595B"/>
<path transform="translate(842,538)" d="m0 0h35l12 2 6 4 7 10 7 15 5 17 2 12v24l-4 19-7 19-9 15-9 10-7 7-14 10-17 8-12 3-8 1h-28l-14-3-16-7-13-8-10-8-12-12-9-12-8-16-5-15-2-15v-18l2-14 4-11 9-10 15-7 21-7 30-7 36-5zm16 7-20 1-9 2h-13l-18 3-9 2-16 4-26 8-16 8-6 5-4 9-2 14v16l4 20 7 16 7 12 11 13 11 10 14 9 11 5 21 5h22l15-3 15-6 12-8 10-9 7-7 9-13 7-14 5-16 2-16v-13l-3-19-6-18-6-11-6-5-9-3-11-1z" fill="#BC8E4D"/>
<path transform="translate(825,1162)" d="m0 0 10 5-1 4-7 9-10 16-8 13-1 3h-2l-2 6-5 8-7 11-8 16-3 10 2 11 6 10 3 3-11 6-23 8-18 5-12 2h-6l1-7 5-13 10-16 8-14 9-13 9-11 8-12 13-16 8-10 9-10 15-16 5-5z" fill="#FBFAF9"/>
<path transform="translate(878,720)" d="m0 0h37l25 2 38 6 15 4 10 3v5l-7 7-3-1-4-10v-2l-15-1-23-3h-69l-26 2-22 2-20 3-7 2-16 2-7 2-21 4-27 7-14 4-5 2-9 3-11 3-30 12-11 5-6 2-5 17-2 6-7-2-12-5v-2l-7 3-12 7-12 9-5 3 2-4 10-11 15-11 4-1v-2l12-6 16-9 16-8 26-11 28-10 26-8 47-11 42-6 19-2z" fill="#EDD2AA"/>
<path transform="translate(1324,1210)" d="m0 0 2 4 5 8 3 9-6 7-13 10-10 8-9 7-5 4v6l-4 6-12 6-8 1-2-2-6 1-13 6h-2l-1 2-17 7-6 4-9 2h-24l-14-1 4-1v-2h3v-2l22-11 4-1v-2l9-3v-2l4-2h3v-2l5-1v-2h3v-2l7-2v-2l5-1v-2l5-1v-2l5-3h3v-2l5-1v-2l4-2h3v-2l5-1v-2l6-3h2v-2l6-3h2v-2h3v-2h3v-2l5-3h2v-2l7-4 3-1v-2l5-3h2v-2l6-2z" fill="#8F111B"/>
<path transform="translate(708,884)" d="m0 0h6l2 3 1 9 4 1v-10h1v16l-3 12-7 11-10 8-10 5-13 3v5l13-2h16l10 4-1 4h-4l-2 4-6 8-3 5v13l1 6h-2l3 8-4-2-8-8-10-13-9-16-10-25-4-16v-2l7-2v-17l2-2 12-4h3v-3l10-1 2-1z" fill="#3E3F46"/>
<path transform="translate(763,1006)" d="m0 0 6 1 3 4 5 3 9 9 8 15v5h2l2 10 2 2-16 3-20 10-3 3-7-5v-2l-21-2 1 6-2-2-3-12h-2l-5-13v-2h-2l-3-9h-2v-3h-2v-3l-3-1-5-8-1-5 6-1 9 3h22l9-3h7z" fill="#F7C3AF"/>
<path transform="translate(513,921)" d="m0 0 3 2 1 3-5 2-3 2 16 3-3 3-6 1-1 2-24-2v2l-3 3-1 2v9l8 27 3 11 2 14 5 21v23l-4 9h-2l-1 4-5 5-4 1v2l-10 4-24 5-21 4-8 3h-4v2l-15 6h-2v2l-16 8-7 4-1 2h-3v2l-6 2-1 3-4 2-1 2-5 3-1 2-4 2-7 8-8 7-5 5-3-1-2-4 3-5 11-13 5-5 6-5h2l2-4 13-9 19-11 10-6 13-5 12-5 12-4 7-2 13-1 10-2 9-2 9-7 4-5 2-4 1-6v-13l-5-27-11-35-4-12v-15l4-6 8-7 6-2-1 3 7-3 8-3z" fill="#282531"/>
<path transform="translate(1043,918)" d="m0 0 5 2 3 6 2 5 2 3-2 14-4 3-3 5-1 3v3h2l1 22-3 6h-3l-1-2-2 3-2-4-11 9-7 8-8 8-8 10-8 7 2 5 3 1 5 10 1 3v15l-5 12-10 13-3 4-5 19-9 15-8 8-8 6-5 2h-13l1-9h7v-2l12-5 5-5 6-9 3-5 3-11 2-13 5-5 6-5 4-9 1-3v-14l-5-9-9-5h-10l-7 2-6 7-3 5h-26l-11 3-10 8-7 11-4-2-5-5-10-2v-2l5-2 10-2 5-5 9-7 9-4 10-2 19 1 6-8 9-6 3-1h14l8 1 7-7 7-8 11-12 17-17 4-6v-9l5-10h2l2-4 2-3h2l1-10-5-14z" fill="#1F0D0C"/>
<path transform="translate(365,327)" d="m0 0 7 1 4 7 8 19 10 28 6 17 1 11-2 1-14-7-20-11-16-8-10-3-5 2-4 5h-2l-1 13 3 12 6 14 4 11 2 6-1 5-3-1-4-12-4-9v-3h-2l-5-12-4-10 1-11 8-18 7-13 9-12 11-13 8-8z" fill="#FCE8C7"/>
<path transform="translate(915,861)" d="m0 0 3 1h-2l2 6v19l-4 12-7 9-10 7-11 4v3h16l12 4 6 4v3l-7 8-3 7v14h-2l4 10 1 2-4-2-7-7-11-14-8-14-8-16-6-15-5-18v-2h2l1-3h4v-14l1-1 14-2h7v-2l9-1h13z" fill="#4B434B"/>
<path transform="translate(1043,834)" d="m0 0 4 2 46 69-2 4-16 12-14 12-3-1-9-20-13-26-11-27-5-14v-4z" fill="#4B424A"/>
<path transform="translate(1055,1217)" d="m0 0h11l12 3 8 5 5 6 3 3v2h2l-1 5-4 9v3l14 2 4 7 1 4v19l-3 10-1 2h-2l-2 5-3 3h-31l-4-12v-2l9-3 7-6 3-7v-9l-1-4-3-1v14l-5 7h-2v2l-5 2h-5l-4-10 1-4 3 2 2 6 3 1-1-4v-10l5-6 7-4h2l-3-5-7-6h-13l-10 2-5-11-4-9 1-4z" fill="#91141D"/>
<path transform="translate(560,883)" d="m0 0 21 2 29 2 6 1h21l17 1 4 1v-2h8v2h4v-2l13-1v3l-15 5-1 1v17l-6 2h-2l-2-8v-6l-11 6-9 6-5 8v12l2 4v3l-5-2-9-4-17-9-24-9-12-3-4-18-3-9z" fill="#2F1413"/>
<path transform="translate(659,678)" d="m0 0h1l3 10 6 10 10 15 11 12 10 5-4 5-4 13-13 6-24 11-19 10h-2l-1-17 2-22 5-20 9-21 9-16z" fill="#F1D5AC"/>
<path transform="translate(752,1164)" d="m0 0 6 4 15 3 6 1h13l13-2-2 4-8 7-7 8-14 17-10 13-13 17-12 18-16 29-8 15-3 8-1 11-5 1h-19l5-9 8-12 11-17 14-24 9-20 6-16 6-25 4-16z" fill="#8F121C"/>
<path transform="translate(276,1128)" d="m0 0h4l1 3-3 8-1 5-2 7h4v-3h6l-3 7h-2l1 7-7 32-3 20-1 18 1 29 3 23v5h-4v-3h-2l1 5v12l3 9-3 2-5-6-4-8-7-21-4-21-1-10v-29l1-4 2-19 4-16 6-17 3-8 5-13z" fill="#61585A"/>
<path transform="translate(927,1163)" d="m0 0 4 1 8 11 10 17 8 15 5 8 10 22 10 29 7 20 5 12 1 8-33 1-8-3-15-10-1-4 8-5 9-11 2-4v-9l-7-30-4-14-10-26-8-16-3-5-2-1 1-5z" fill="#FAF9F8"/>
<path transform="translate(508,277)" d="m0 0h9l6 4 4 7v9l-2 4v6l2 2 12 2 2 1v2l4 2 1 3h2l1 4v8l-3 6-6 5-2 1h-10l-9-5-2-3-7-1-7 7-5 3-4 1h-7l-6-3-5-6-1-10 3-8 5-4 15-3-1-5-4-4-2-5v-6l6-9 8-4z" fill="#FCE8C6"/>
<path transform="translate(410,334)" d="m0 0 5 1 5 13 7 20 4 12 3 12 3 7 2 8 8 26 3 9v5h2l4 15 8 28 5 17 4 15 3 10 4 13 7 24 3 13 3 9v5l-3-1-8-23-5-17-4-14-4-9-6-24-3-8-5-16-7-27-6-14-5-17-4-12-5-10-1-3-7-1-1 8-4 2-2-6h-2l-11-30-8-21-1-6 11-9z" fill="#F9E5C3"/>
<path transform="translate(721,884)" d="m0 0h4l6 16 7 11 8 7 11 5 9 2h12v5l-8 1-10 6-7 8-4 13-2 8v16l2 11 1 1v7l-5 1-2-5-2-13-4-12-9-14-9-8-11-4h-16l-13 2-1-1v-5l18-6 10-6 5-4 7-11 3-12z" fill="#F9E7C8"/>
<path transform="translate(884,971)" d="m0 0 4 1 5 4 3 1v-2l6-1 1 5-6 6-8-1-6-2-8 18-8 15-8 9-11 6-8-1-11-7-3-4v-2h-2l-6-9-6-12-2-2-6 1v2l-4 2h-9l-5-4 1-4h10l7-6 10 1 1 1h12l9-4 5-4 6-1 7 3h19l6-4z" fill="#3B1210"/>
<path transform="translate(785,389)" d="m0 0h14l10 6 7 9 3 8v9l-3 10-5 7-10 6-6 2h-13l-10-5-7-8-4-8v-16l7-11 10-7z" fill="#FBFAF9"/>
<path transform="translate(1316,1261)" d="m0 0 4 2 9 16 7 11 10 21v3l-42-3-53-3-6-1 3-3 10-5 7-5 11-6 18-11 15-10z" fill="#4B4149"/>
<path transform="translate(995,420)" d="m0 0h1l5 76 3 81 1 42v51h-3l-7-16-6-9 2-7-3-9-1-9 4-24v-33l-1-1-3-35-3-12-1-33v-14l1-8 1-9 1-5 1-9 4 1 1 7 2 16 2 14-1 2h2v3h-2l3 14h-2l2 4 1 8v13l-1 7 1 3-1 3v7l-1 5 1 4v3l2 26v28l1 11v17l2 3-1-57-3-80-3-49-1-13z" fill="#8F0E1B"/>
<path transform="translate(916,862)" d="m0 0 4 1 4 12 5 9 9 10 10 6 13 5 14 1v3l-11 2-5 2v2l-6 5-5 9-3 10v22l3 11v5h-5l-5-19-7-14-7-9v-2h-2v-2l-4-2-12-5-4-1h-16l-1-4 12-5 11-8 6-9 3-10v-19z" fill="#FBE8C8"/>
<path transform="translate(849,751)" d="m0 0h23l26 1 2 3v7l-6 4-8 1-4 2 1 7h-2v2l-4-2-2-5h-3l-3 5-6 1-10 2-5 6-4 1h-10v-2l-7 3-4-1-6 1h-8l-2-3v-4l-7-1-3-3-3-1 1-7 6-7 10-4 20-2 16-3z" fill="#3E3F44"/>
<path transform="translate(754,437)" d="m0 0h3l-2 4-5 2-7 4-8 6 1 4 9 11 8 8 10 8 8 6 5 5-15 7-14 8-9 7-4-1-4-14-7-17-6-11v-2l-6 1-1 3h-2v2h-2l-2 4-4 2-2 4-10 13-11 19-4 8-2 9 5 1 3 2-12 2h-5l1-5 3-8 7-15 10-16 12-16 15-16 11-9 13-10 16-8z" fill="#FCE8C7"/>
<path transform="translate(757,882)" d="m0 0h8l4 7h7l2 2 2-1 5 20 2 14v31l-2 14-3 9h-2l-2-10h-1v-7l1-1 1-25-12 5-4 3-1 3-4-2-3-1 2-4 9-7 4-2h8v-5l-5 1-13-1-12-5-8-6-6-7-7-14 1-3 4 1-1-8z" fill="#484148"/>
<path transform="translate(817,1255)" d="m0 0 7 1 3 5v2l9-1 1-2 4 1 12 7 18 6 20 1v1l-17 1-1 6 15 1 7 20 1 5h-16l-20 1-1-4-8 4-2-1 3-3 5-13 2-5 1-5-5-2-23-12-3-1-3 9-7 16-4 10-3 5h-2v2h-3l2-4 2-3h2l2-6 5-13 1-7v-2h-2l-1 5-12 22-6 9-1 1-27 2h-14l1-3 8-3h2l1-2 3-2 5-2 12-5 14-7 5-5 3-1 1-10 2-10-1-6z" fill="#301615"/>
<path transform="translate(1153,1233)" d="m0 0h6l5 11 1 6h2l6 12-2 17-5 5-6 1v2l-11 5h-2v2l-7 2v2l-8 3-6 4h-2l2-10 2-14v-10l-3-17-1-1v-6l7-3z" fill="#91141C"/>
<path transform="translate(479,646)" d="m0 0 3 3 1 6 3 1-1-3h2l4 15v3h2l13 51v5l-8 10 1 5 20 16 3-1 5-5 4-2 1-4 2 8v5l-9 10-5 3-9-7-13-11-12-9-2-2 1-6 7-10v-2l-2-1v-2l-5-2-11-7-17-10-3 3-6 11-4 1-11-5-6-1 3-1v-10l1 2 12 1 6-10 3-2 9 1 9 4 18 11 5 3-2-12-10-42-2-7z" fill="#B5742D"/>
<path transform="translate(1111,929)" d="m0 0 4 2 2 2 1 16 2 9-1 11v3l1 3-2 4-1 3-2 1-1-8-7 1v7l-2 2-3-1-5-1v-2l-4 3-5 1-2 4-9-2-2-2-8-2 1-2 4-1-1-1-6-1v-2h-2v-3l-4 2h-4l19-19 11-9 14-11 9-6z" fill="#333435"/>
<path transform="translate(476,278)" d="m0 0 12 2-2 25-16 8-27 14-16 9h-3l-6-11-1-1-7 1-9 2 4-5 11-8 16-11 15-10 20-12z" fill="#4A4149"/>
<path transform="translate(701,568)" d="m0 0h10l-3 12-3 13-1 9v18l3 19 6 17 7 13 10 14 14 14 10 7 21 11 12 4-1 3-5 1h-13l-16-8-11-7-14-12-10-11-9-14-6-12-7-21-2-10-1-10v-17l4-21 3-9-3-1z" fill="#896946"/>
<path transform="translate(927,1263)" d="m0 0h3l4 18v4h2l2 7 5 4 10 6 1 2-1 2-9 1-15 1h-27l-6 1-6-17-2-8h-16l1-7 1-1 17-1 23-7 10-4z" fill="#2E1414"/>
<path transform="translate(809,1250)" d="m0 0h12l7 3 10 6-1 2 1 1v1h-11l-3-6-7-1h-2l1 11-4 17-8 7-16 8-11 5-5 2-5 3-8 3-1 2 41-3 6-9 13-24 1-3h2l1 7-4 9-4 10-7 9-7 3-20 2-58 3h-16v-1h5v-11l7-16 9-16h1l-1 10-7 17v5l2-1v3l21-4 21-6 17-6 8-4h4l2-4h3v-2l5-2 5-19v-9z" fill="#300B0D"/>
<path transform="translate(973,659)" d="m0 0 4 5 11 23 4 12 4 23-4 1-28-6-33-4-10-1 5-7 3-3 5-6 6 2 11 4 5-1 6-9 7-18z" fill="#F0D4AB"/>
<path transform="translate(581,728)" d="m0 0h5l3 9 3 14 3 10v3l3-1-1-13 5-8 2 1 1 11 1 5h2l1-12h1v44l-7 5-5-1v2h-2l-1 5-12 12-7 10h-2l-7-12-2-4 5-7h3l5-2 1-7v-16l5 1 1-4v-10l-5-27v-7z" fill="#8F0E1B"/>
<path transform="translate(408,309)" d="m0 0 2 1-8 8h2v2l-2 1v2l2 1-2 2 10-3h5l7 10 1 4h-5l-1-3-9 1-11 6-13 11-3-1-3-3-6-16-2-4h-7l-8 7-10 11-12 16-11 22-3 8-1 6h-1l-2-13-1-3-2 1 3-9 2-5h2l2-6 6-9 2-4h2l2-4 4-6 9-11h2l1-3 5-5 7-4 1-1h11l6 8 2 4h4l2-4 11-8 3-3h2v-2z" fill="#1D171B"/>
<path transform="translate(1122,901)" d="m0 0 9 1-2 5-3 4v7l1 4v7l-9-2-11 5-12 8-13 11-11 9-14 14-6 5h-3v-17l9-10 12-12 6-7 6-4 5-5h2v-2l4-1v-2l4-1v-2h3v-2l16-10z" fill="#62585A"/>
<path transform="translate(909,551)" d="m0 0h10l7 15 6 20 2 13v24l-3 17-5 16-7 14-4 6h-2v3h-2l-1 4h-2l-2 5-12 13-9 9-3 1-17 1v-2l5-3h3l1-3 11-8 10-10 10-13 6-10 7-17 4-14 2-17v-12l-3-21-4-12z" fill="#836545"/>
<path transform="translate(806,489)" d="m0 0h17l18 3 18 6 9 4v2l5 1v2l5 1v2l4 1 4 3 4 2-12 3-10-6-15-7-18-5-7-1h-25l-15 3-16 5-16 8-11 8-14 12-3 3v-2h-22v-1l13-1 2-3h2l2-4 7-8 15-11 14-8 17-7 18-4z" fill="#866747"/>
<path transform="translate(696,886)" d="m0 0 12 1 4 2 3 7v7l-4 11-7 9-8 6-13 5-9 1-5-15-2-23 7-3 9-3 6-3z" fill="#4969A7"/>
<path transform="translate(767,196)" d="m0 0h16l5 3 11 2h11l10 3 5 1 6 6 10-1 3 3 1 5 1-4 6-1 3 3-1 3-5 1-2-1-1 4-5 1-4-2-17 1-5 1-1 1-13-1-13-2h-7l-8-3-13-3-1-4 6-6v-3h-6l-3-3 1-3h6 1z" fill="#3E3F44"/>
<path transform="translate(1062,797)" d="m0 0 3 1 7 12-3 3-16 7-10 3-9 3-8 3-11 2-14 4-18 4-7 2-4 1-3-3 6-2-2-7-9-2h-4v-2l16-3 31-7 29-8 10-3 12-5 4-1z" fill="#FBE8C7"/>
<path transform="translate(649,1322)" d="m0 0 3 1-1 4v3l-5 5-12 11-18 12h-3v2l-21 10-16 8-16 6-27 6-2-1 12-8 17-14 7-5h3l14-7 19-7 21-10 17-10z" fill="#DFDEDE"/>
<path transform="translate(825,500)" d="m0 0h10l21 6 21 11 6 4v2l4 2 12 11 7 9 1 5-13-6-5-3-17-3-24-1-10-14-12-19z" fill="#FDE9C7"/>
<path transform="translate(971,868)" d="m0 0 7 1 15 7 8 6 3 8 2 19 2 2-2 10-12 27-10 15-7 8-1 3h-2l-1 3-15 8-3-1 11-6 7-6 6-9 6-17 1-12v-18l-3-16-3-11-5-11z" fill="#FBF9F8"/>
<path transform="translate(903,864)" d="m0 0h6l4 13v12l-6 12-7 7-11 5-7 1-4-9-5-21-2-8v-7l1-1z" fill="#4868A6"/>
<path transform="translate(835,1167)" d="m0 0 5 1-1 8-11 18-11 17-9 15-8 14-7 14 13-4h3v11l-5 19-6 2v2l-4 2-1 2-2-1-6-7-4-9-1-8 3-10 8-16 9-14 6-11h2l1-5 12-19 10-15 3-3z" fill="#98969A"/>
<path transform="translate(673,642)" d="m0 0 5 1 8 22 1 9-5 4-10 5 8 15 10 14 5 6v2l8-4 5-2v-2l5-2 13 10 14 9-1 4-9 3-12-9-5-4-7 1-6 4h-7l-10-9-8-10-8-13-6-10v-8h2v-2l12-6-1-7-3-8-1-3-9 3-2 1-3-10v-2z" fill="#856646"/>
<path transform="translate(1115,1186)" d="m0 0 13 1 7 3 3 2 4 8v2h2l2 4v4h-2v2l-5 1v2l-12 6-9 5h-2v2l-5-1-4-7-8-8-13-7-1-3 9-4 8-6 10-3v-2z" fill="#90121C"/>
<path transform="translate(935,1157)" d="m0 0 3 1 20 32 13 25 9 17 15 41 7 21 2 11-9 1-4-14-5-12-7-20-6-17-6-15-8-16-10-18-9-16-9-13 1-5z" fill="#1C0A09"/>
<path transform="translate(896,545)" d="m0 0 6 2 4 2h3l11 26 4 18 1 10v12l-2 17-5 17-7 15-7 12-12 14-8 8-10 7-1 2h-3l-3-7 10-7 10-9 8-9 9-15 7-19 4-19v-24l-4-20-6-16-6-11-3-4z" fill="#F0D4AB"/>
<path transform="translate(668,651)" d="m0 0 3 1 1 7-7 7-8 7-7 10-8 16-7 18-5 23-1 7-1 32-7 5h-3l-1-4v-11l2-27 5-24 6-18 11-23 11-14 6-7z" fill="#FAE6C5"/>
<path transform="translate(920,1166)" d="m0 0h3v3l3 1 8 14 14 35 9 37 1 5v9l-6 9-8 9-6 2-1 2-1-1v-6h-2l-4-17v-5l-2-1 5-2 6-1h8l-5-25-4-15-7-20-8-19-2-12h-5z" fill="#9A9799"/>
<path transform="translate(829,1268)" d="m0 0 5 1 26 14-1 9-5 11-3 5-2 2-20 1h-22l3-1v-2h2l1-4 4-8 5-12z" fill="#333434"/>
<path transform="translate(794,1055)" d="m0 0h30l1 1 9 1 10 4 5 1h6l-2 4-5 7-9-1-11-4-5-1h-22l-16 3-10 4-4 1-1 3-5 4h-7l-4-3v-2l-3-1v-2l-7-1v-2h-8l-2-2-1-7h9l10 1 2 1v2l8 4 4-4 13-7 5-2z" fill="#22110E"/>
<path transform="translate(527,289)" d="m0 0h1l1 6 9-2-2 2-1 5 2 4 8 5 4 2v2h2l4 9v9l-4 9-4 4-10 4-5 1-8-2-2-2h-2v-2l-10-1-4 2-7 5h-3v2l-5 1-1 2h-2l5 10 4 14 7 26v6h-5l-3-8-8-30-6-20-6-8-2-1v-3h-2l-4-11 1-6-3-1 11-2-1 12 3 7 5 4 3 1h7l7-3 8-7 5-1 4 2 4 4 6 3h10l6-4 3-4 1-3v-12h-2l-5-5v-2l-14-2-3-3v-6l2-4z" fill="#901A1F"/>
<path transform="translate(560,883)" d="m0 0 21 2 29 2 6 1h6l1 2-10 6-10 10-6 9-2 6-5-1-14-5-9-2-4-18-3-9z" fill="#3A353D"/>
<path transform="translate(951,613)" d="m0 0h12v1h-7l1 3 2 1-1 16 7 6 3 1h3l4 2v6l-1 2-2 15-5 16-5 12-6 8-5 1-13-5-4-1-2 3h-2l-2 5h-2l-2 4-5 3-9-1 1-3 8-7 13-14 7 1 12 5 4-5 6-16 5-22h-8l-12-3 3-22 1-11z" fill="#836445"/>
<path transform="translate(421,710)" d="m0 0 12 2 12 6v3l-7 17-6 12v6l2 2-6-1-8-4h-8l-4 4v13l3 4-1 2-3-3v-2h-2l-3-6v-8l5-21 10-20z" fill="#FDE9C7"/>
<path transform="translate(964,246)" d="m0 0 5 1 5 6 4 15 3 14v6l-4 9-3 3h-2v2h-13l-5-4-2-3-1-10 1-5 5-4 3-5-1-4-5-5v-7l4-6z" fill="#FAE6C3"/>
<path transform="translate(713,954)" d="m0 0 4 1 8 8 7 12 5 15 2 8v5h-11l-10-4-11-8-6-8v-13l7-11z" fill="#CEDDE6"/>
<path transform="translate(1204,790)" d="m0 0h1l1 7 6 1 2 27 1 1 3 27 1 20 6 56v8l-6 1-3-4-2-15-5-61-3-27-1-21-1-2z" fill="#C8BEB1"/>
<path transform="translate(672,656)" d="m0 0h1l2 7 1 7-11 6h-2v2h-2v5l-2-4-10 18-8 19-5 20-2 22v17l27-14 6-1-4 3-13 7-1 2 7-3h4v-2l7-1v2l-17 8-23 13-5 3h-3v2l-2-1 1-9 9-5 1-32 5-25 4-13 8-19 8-13 9-10 9-8z" fill="#B67731"/>
<path transform="translate(757,882)" d="m0 0h8l6 11 6 24-1 3h-14l-10-4-12-11-5-8-1-4 1-6 10-4z" fill="#4969A7"/>
<path transform="translate(928,863)" d="m0 0 24 1 7 1 11 19 4 12-1 3-9 1-12-3-8-4-9-8-7-12-1-9z" fill="#4969A7"/>
<path transform="translate(844,985)" d="m0 0 9 2 16 3 1 2-2 7h-2l-2 5-1 3h-2v3l-2 1-1 3h-2l-1 4-5 3h-7l-4-1-5-5-4-3-6-10-3-3-1-4 12-1v-2l7-3 3-1v-2z" fill="#F7C1AD"/>
<path transform="translate(927,870)" d="m0 0 2 3 7 12 8 7 8 4 12 3 9-1-2-9-3-9 3-2 6 7 3 8 2-1 3 11 2 13v18l-1 12-3 7-2-4-4-11v-15l-1-9-11 3-6 4-3 3-5-1 3-5 3-3h2v-2l8-4h8v-3h-14l-13-5-10-6-8-8-4-7v-7z" fill="#4A424B"/>
<path transform="translate(1317,1245)" d="m0 0 2 1-5 6 3 9-8 7-23 15-17 10-14 9-10 5h-20l-14-1 3-2 7-2 12-6 10-4 16-8 7-1 1 2 8-1 10-5h2l2-4 1-4 1-5 12-10 11-8z" fill="#2E0708"/>
<path transform="translate(620,808)" d="m0 0 10 3 11 4-1 2-7 2-5 2-1 2-5 1v-2l-3-1v-2h-5v2l-7 4 1 2 3-1 2 1-2 6v6l-3 5v2l-2 1-14 1-17-1-5-1 2-4 12-11 14-10 20-12z" fill="#2B2D35"/>
<path transform="translate(508,311)" d="m0 0h6l5 4 3 3 12 6 5 2 2 7-2 3-5 2h-6l-8-5-11 1-6 1-6 4-9 1-6-6v-9l5-5 11-3 6-3z" fill="#F1D5AC"/>
<path transform="translate(1043,918)" d="m0 0 5 2 3 6 2 5 2 3-2 14-4 3-3 5-1 3v3h2l1 22-3 6h-3l-1-2-2 3-2-4-11 9-7 8-8 8-8 10-6 5v-10l1-4 7-7 7-8 19-19 4-6v-9l5-10h2l2-4 2-3h2l1-10-5-14z" fill="#310C0C"/>
<path transform="translate(410,334)" d="m0 0 5 1 5 13 7 20 4 12 3 12 2 4v6l-5-5-3-4-6-14-4-12-2-11-3-6v-2l-5 1-1 5 3 8 2 12 3 2-1 9-5 1-5-6-11-28 1-5 8-9z" fill="#FBFAF8"/>
<path transform="translate(881,1152)" d="m0 0 4 5 4 4v2l4 1v2h5l-3 1-3 9-10 15-7 7-6-1-4-2-3-9-2-8v-8l-4-1 9-3 9-6z" fill="#CFDEE6"/>
<path transform="translate(956,925)" d="m0 0 7 1 9 6 5 5-1 10-4 11-6 10-8 6-5 1-2-7-1-8v-19l5-15z" fill="#CEDDE6"/>
<path transform="translate(753,1152)" d="m0 0h3l4 4 10 4 5 1h16l9-2 11-5 2 1 4 4-1 7-9 10-4 4h-2l-2 4-7 6h-2l-5 5-4 3 2-4 10-11 6-7 5-4 1-2-5 2-8 1h-13l-17-3-8-3-1-1z" fill="#2E0809"/>
<path transform="translate(958,620)" d="m0 0 4 2 11 12 9 12 7 12 7 15 3 7v5h2l2 8 1 11v19l-2 2-2-6-4-21-9-22-12-21-1-1v-11l-5-2-2 1-8-6-2-2v-8z" fill="#F9E5C4"/>
<path transform="translate(365,327)" d="m0 0 7 1 4 7 7 17v6l-5 1-4-7-6-9h-3l2 2-6 4-5 5v3l-10 7-3 3-1 4-2 2-8 1-2-1 1-5 6-10 11-14 11-12z" fill="#FAF8F6"/>
<path transform="translate(878,983)" d="m0 0 4 1-5 12-8 16-8 10-8 5-5 3-8-1-11-7-3-4v-2h-2l-6-9-6-12-2-3 3-1 2 1 17 1v1l-11 2 1 5 3 1 4 6 1 4 4 2 5 4v2h11l5-3 1-3h2l1-4h2v-3h2l1-5 2-3h2l1-8-19-4 4-1h19l5-1z" fill="#922123"/>
<path transform="translate(884,919)" d="m0 0 2 3h16l12 4 6 4v3l-7 8-3 7v14h-2v3l-3-1-2-5v-3l-4-1-7-10-2-5h-2l-5-10 1-2h2l1-4-4-1z" fill="#4C444D"/>
<path transform="translate(760,946)" d="m0 0 6 3 8 7 2 3v10l-5 12-4 6-8 9h-3l-2-5-1-6v-19l4-15z" fill="#CDDCE5"/>
<path transform="translate(918,1276)" d="m0 0 5 1 7 18 3 5 1 6-5 1h-23l-3-5-4-13v-6l6-3z" fill="#24222F"/>
<path transform="translate(909,551)" d="m0 0h10l7 15 6 20 2 13v24l-2 13h-1l-1-3-4 9-2 11h-2l-1 6-4 6h-2l1-4 3-7 5-15 2-10 1-17-1-22-1 1 1 10v19l-2 4v-21l-3-21-4-12z" fill="#826445"/>
<path transform="translate(939,260)" d="m0 0 7 1 8 3 1-2 6 7-2 5-5 6h-2v9l2 7 5 5 13 1v-2l5-4 2-7 2 2 3 13-9 6-9 3-5-1-7-3-6-4-3-4-3-9v-7l5-12 1-4v-6l-9-2z" fill="#90151D"/>
<path transform="translate(938,790)" d="m0 0h4l7 16v3l-14 3-25 3-4-12v-5l7-2z" fill="#EFD4AC"/>
<path transform="translate(816,427)" d="m0 0 1 3 8 1-5 10-9 9-10 5-4 1h-12l-10-3-10-6-5-4-2-3v-3l-3-1 5-2 4-1 1-2 6 8 8 5 3 1h13l10-4 6-4 4-6z" fill="#B98C4D"/>
<path transform="translate(873,1069)" d="m0 0 11 2 6 3 1 3-7 4-1 2h-2l-2 4-7 7h-2l-2 4-5 4-2 3h-3l-4-7v-12l3-8 4-4h3v-2z" fill="#FCE8C6"/>
<path transform="translate(412,752)" d="m0 0h8l10 5 4 1-3 12-3 13-3 7-5-3-9-9-2-5-2-3v-13z" fill="#B88E53"/>
<path transform="translate(869,1285)" d="m0 0h19l3 7 5 14v3h-16l-20 1 3-9 4-9z" fill="#DBDAD8"/>
<path transform="translate(1006,746)" d="m0 0 9 2 1 3 4 2 7 6v2l4 2 19 19v2l4 1 5 8-5 3-9 1-4-6-13-16-9-11-12-14z" fill="#645A5C"/>
<path transform="translate(983,304)" d="m0 0 2 4 5 40 3 43-2 1-1-14-3-1-7-34-6-24-1-8 6-5z" fill="#B71929"/>
<path transform="translate(516,916)" d="m0 0h30l15 2 9 3-1 3-5 2v4l-22-3h-20l-5 1h-7l6-3-3-3-11 2-9 4h-2l1-4 5-3 9-3z" fill="#1D181C"/>
<path transform="translate(917,935)" d="m0 0h2l9 13 5 11 3 10v7l-6-1-11-7-8-7-2-4v-9l5-10z" fill="#CDDCE5"/>
<path transform="translate(812,1281)" d="m0 0 2 1-1 7-11 20-3 3-27 2h-14l1-3 8-3h2l1-2 3-2 5-2 12-5 14-7 5-5 3-1z" fill="#8F0F1B"/>
<path transform="translate(1057,1245)" d="m0 0h13l10 9v3l-10 6-3 4v14l-4-1-1-6h-4l-2-3-6-15-2-8z" fill="#F0D4AB"/>
<path transform="translate(927,1263)" d="m0 0h3v10l-3-3v-2l-10 4-4 2h-6v2l-10 3-3 1 1 7 6 12 3 3 2 4 23 1v1h-27l-6 1-6-17-2-8h-16l1-7 1-1 17-1 23-7 10-4z" fill="#1E0D0C"/>
<path transform="translate(479,646)" d="m0 0 3 3 1 6 3 1-1-3h2l4 15v3h2l13 51v5l-5 6-1-4 2-5-3-7-5-3-4-2-11-7-1-2 5 2 10 6-2-12-10-42-2-7z" fill="#BB8A48"/>
<path transform="translate(672,656)" d="m0 0h1l2 7 1 7-11 6h-2v2h-2v5l-2-4-10 18-8 19-5 20-2 22v17l2 1h-3l-1-7v-23l4-21v-4l-3 10h-1l1-9 4-13 8-19 8-13 9-10 9-8z" fill="#BB8D4B"/>
<path transform="translate(804,491)" d="m0 0h21l8 1v2l4 1 7 2 7 1h8l9 4v2l5 1v2l5 1v2l4 1 4 3 4 2-12 3-10-6-15-7-24-7-13-1-7-3 1-3h-6z" fill="#6E5441"/>
<path transform="translate(995,772)" d="m0 0 5 1 10 12 1 4 3 1v3l-20 6-4-2-2-3v-3h-2v-3h-2l-2-6h-2l-1-3 12-5z" fill="#EED4AD"/>
<path transform="translate(889,211)" d="m0 0 9 2 27 11 16 8 12 5 4 2v2l-6 3-5 8-5-3-8-8-10-8-13-10-16-8-5-3z" fill="#999698"/>
<path transform="translate(929,723)" d="m0 0h18l31 5 15 4 10 3v5l-7 7-3-1-4-10v-2l-15-1-23-3-16-1-47-1 2-2 35-1z" fill="#F9F4EC"/>
<path transform="translate(971,781)" d="m0 0 4 1 11 16-1 3-11 3-12 2-8-16-1-3 8-3z" fill="#EFD4AB"/>
<path transform="translate(633,718)" d="m0 0 1 4-5 25-1 32-7 5h-3l-1-4v-11l2-27 3-3 2-4 4-5h2z" fill="#EFD3AA"/>
<path transform="translate(452,692)" d="m0 0 9 1 9 4 8 5-2 1-4-2h-6l-2 1 2 5-6-2-4-2-8 14-4 1-11-5-6-1 3-1v-10l1 2 12 1 6-10z" fill="#BA8C4C"/>
<path transform="translate(1062,797)" d="m0 0 3 1 7 12-3 3-16 7-8 1-9-3-1-4 4-4h2v-4l9-3 10-4h2z" fill="#EDD3AD"/>
<path transform="translate(343,338)" d="m0 0h2v7l-4 9-6 8-11 22-3 8-1 6h-1l-2-13-1-3-2 1 3-9 2-5h2l2-6 6-9 2-4h2l2-4 4-6z" fill="#0F0B0C"/>
<path transform="translate(851,721)" d="m0 0h59v1l-19 1h-17l-47 5-38 6-23 5-19 4h-7v-2l37-9 25-5 39-5z" fill="#FBE5C1"/>
<path transform="translate(531,526)" d="m0 0 4 2 3 7 8 31 2 13 3 11v4h2v5l-9-3-3-5h2v-8l-5-17-5-18-4-20z" fill="#960D1C"/>
<path transform="translate(851,871)" d="m0 0h10l1 4-2 5-8 2-47 4-23 1v-4l39-5 28-4 3-1z" fill="#DFDFDF"/>
<path transform="translate(695,951)" d="m0 0h15l3 3-6 8-5 8-1 13-5-5-7-10-6-11 1-3 5-2z" fill="#4A69A6"/>
<path transform="translate(951,613)" d="m0 0h12v1h-7l1 3 2 1-1 16 7 6 3 1h3l3 2-7 1 4 4-1 3h-2l-2 3v-4h-8l-12-3 3-22 1-11z" fill="#896946"/>
<path transform="translate(1204,790)" d="m0 0h1l1 7 6 1 2 27 1 1 3 27 1 24-2-2-1-17-2 2v-2l-3 1v-5-4l-1-2h2l1-4h-2v-9h-2l-2 4-1-8-1-21-1-2z" fill="#AC8B60"/>
<path transform="translate(708,884)" d="m0 0h6l2 3 1 25-3 6-7 7-6 5-5 2-7 4h-2l-1 2-9 1v2h-2l-2 4-4-10-3-9v-3h-2v-7h3l1-8h1l1 12 4 12v3l15-4 12-6 8-9 4-9 1-4v-7l-1-6-5-2-12-1-3-1 2-1z" fill="#474148"/>
<path transform="translate(729,920)" d="m0 0 9 2 6 5 2 3v10l-4 8-3 7-5-1-2-5-3-4 1-5-4-3 3-5z" fill="#F1D5AC"/>
<path transform="translate(439,777)" d="m0 0 5 2 10 7 11 9 5 4v4h-2l-1 7-1-2-9-3-4-3v-2l-5-2-6-4-2-7h-3l1-8z" fill="#333435"/>
<path transform="translate(976,1111)" d="m0 0 1 2-1 2 4-1-2 6-7 9-9 8-7 4-2 1h-13l1-9h7v-2l12-5 5-5 5-7h3z" fill="#2E0A0A"/>
<path transform="translate(711,544)" d="m0 0v3l-6 12-6-1-2 2h-15l-11 2-4 1v-4h2l3-5 5-1 2-1-7-1v-1l25-4z" fill="#A90A1E"/>
<path transform="translate(1086,896)" d="m0 0 4 4 3 5-2 4-16 12-14 12-3-1-5-13 6 1 2 1 14-6v-9l1-3 7-6z" fill="#343536"/>
<path transform="translate(1030,980)" d="m0 0h2v8l-3 3-4 7-14 14-8 10-6 5v-10l1-4 7-7 7-8z" fill="#1F0C0B"/>
<path transform="translate(1219,683)" d="m0 0 21 7 20 2-2 10-2-1h-11l-17-4-10-5-3-3 1-5z" fill="#BC8E4D"/>
<path transform="translate(509,438)" d="m0 0 4 1 8 30 3 16 3 9 1 9h-4l-3-6-7-28-6-19-1-11z" fill="#950D1B"/>
<path transform="translate(894,928)" d="m0 0h12l10 4 1 4-4 5-3 7-1 9-5-5-13-18-1-4z" fill="#4969A6"/>
<path transform="translate(508,277)" d="m0 0h9l6 4 4 7v9l-4 1-2-3-1-8h-2l-1-2-7-1-9 5-2 12-2 3-4-2-2-5v-6l6-9 8-4z" fill="#F7F5F3"/>
<path transform="translate(917,1040)" d="m0 0 5 5v2l2 1-7 3-9 7-7 11-4-2-5-5-10-2v-2l5-2 10-2 5-5 9-7z" fill="#1F0F0E"/>
<path transform="translate(949,1192)" d="m0 0h2l4 7-1-5 4 4 4 9 2 7v4l5 2 5 8 9 25 4 11v5l-2 1-3-4-2-2-7-21-6-15-8-16-10-18z" fill="#2F0F10"/>
<path transform="translate(909,1279)" d="m0 0h5v2h5l1 2v7h-4v3h2l-1 4-1 2 6 1 2 3v3h-5l-3-2h-2v2h-6l-3-10-2-7v-3l1-5z" fill="#333434"/>
<path transform="translate(381,370)" d="m0 0 3 3 1 2 5 3 1 6h2v4h-5l-4-2-13 1 4 1v3l-9-3-17-8-2-3h7l5-3 8 2 5 3 7 3h3l-2-2z" fill="#FEFCFB"/>
<path transform="translate(915,861)" d="m0 0 3 1h-2l2 6v19l-4 12-7 9-10 7-7 3h-5l4-3h2l1-3h2v-2l8-5 6-7 4-9v-12l-3-13-6 1h-10v-1l9-1h13z" fill="#2D2C36"/>
<path transform="translate(894,799)" d="m0 0h6l4 10 1 6-2 1h-20l-3-8v-7z" fill="#F0D5AD"/>
<path transform="translate(1230,645)" d="m0 0 10 3 19 4 3 1 2 9-21-2-11-4-5-4 1-6z" fill="#BC8E4D"/>
<path transform="translate(549,879)" d="m0 0 10 6 3 3 4 14 2 10-16-2-1-2 4-1-7-23z" fill="#2D1211"/>
<path transform="translate(966,643)" d="m0 0h9v6l-1 2-2 15-5 16-5 12-3 5h-2l3-10 4-13-4 4 1-8 4-18h2l1-4 2 1-1-5z" fill="#765A41"/>
<path transform="translate(961,279)" d="m0 0 8 1v2h2l3 5v8l-3 3-5 2h-9l-3-3h2l-1-3v-9l5-5z" fill="#F0D4AB"/>
<path transform="translate(1037,986)" d="m0 0 2 1v6l-10 9-12 12-6 5-7 8-3 1-2 5-3-1-2-4 4-1 2-4 5-5 14-15 8-9z" fill="#7D6146"/>
<path transform="translate(488,360)" d="m0 0 2 2 2-1 5 17 7 26v6h-5l-3-8-8-30-2-9z" fill="#950D1B"/>
<path transform="translate(696,571)" d="m0 0h3l-2 5-7 1-9 3-3 6-3 11-2 4-3 3-13 3h-3l1 5-2 3-1-1 1-13 13-1 3-1 2-5 4-19 1-1 10-2z" fill="#F3DFBD"/>
<path transform="translate(421,710)" d="m0 0 6 1 2 2-5 3-5 6-2 5-6 11v12l1 3-4 4v13l3 4-1 2-3-3v-2h-2l-3-6v-8l5-21 10-20z" fill="#F4F1EC"/>
<path transform="translate(872,910)" d="m0 0h3l2 5 3 5 1 2 1-4 2 1v4l3 1 1 4h-2l-1 2 1 4 2 3v3h2l7 11 3 4 3 1 3 8 3 1 4 9-4-2-7-7-11-14-8-14-8-16-3-7z" fill="#3D3D43"/>
<path transform="translate(715,948)" d="m0 0 3 1-1 4-5 1v-2h-17l-9 2-2 1 2 6 6 10 8 10v2h2l1 6-3 1-6-5-4-5-4-7-5-8-5-9-2-7 3 1v3l3 1 1 2v-4l7-1 4-1h20l4 2z" fill="#4A4249"/>
<path transform="translate(1025,884)" d="m0 0 3 4 12 25-1 3-10-4-11-1h-5l5-5 6-9 2-8h-5l2-4z" fill="#4D4349"/>
<path transform="translate(974,913)" d="m0 0 3 1 1 9v13h-3l-8-7-10-4 1-4 5-4z" fill="#4A69A6"/>
<path transform="translate(582,729)" d="m0 0 4 2 5 22 9 37-1 4-4-2-7-30-6-25-1-7z" fill="#2E0708"/>
<path transform="translate(776,935)" d="m0 0h3v25l-3 1-6-8-9-6 2-5 8-5z" fill="#4A69A6"/>
<path transform="translate(721,887)" d="m0 0h1v16l-3 12-7 11-10 8-10 5-10 2h-5v-2l9-2 7-4 4-3 5-2 12-11 2-5v-19l1 3 4 1z" fill="#303139"/>
<path transform="translate(997,864)" d="m0 0 8 1 6 9 2 7 1 11-4 4-3-7-7-10-3-12z" fill="#8F0F1B"/>
<path transform="translate(479,646)" d="m0 0 3 3 1 6 3 1-1-3h2l8 30 2 11-5-2-1 3h-1l-9-38-2-7z" fill="#B57028"/>
<path transform="translate(412,752)" d="m0 0h8l10 5 4 1-3 12-18-8-5-2-1-3z" fill="#695141"/>
<path transform="translate(557,627)" d="m0 0h3l10 39 5 21v7h-3l-2-5-5-23-8-32z" fill="#2E0708"/>
<path transform="translate(819,1275)" d="m0 0h2l1 7-4 9-4 10-7 9-7 3-20 2h-18v-1l37-3 6-9 13-24z" fill="#2D0708"/>
<path transform="translate(668,651)" d="m0 0 3 1 1 7-7 7-8 7-5 5v-10l-2-1 2-4 6-7z" fill="#F0D5AC"/>
<path transform="translate(930,630)" d="m0 0h1v10l-5 16-7 14-4 6h-2v3h-2l-1 4h-2l-2 5-7 8-4-1 6-7 10-13 6-11 4-7 3-9 2-7 3-10z" fill="#745841"/>
<path transform="translate(927,870)" d="m0 0 2 3 7 12 8 7 6 5 16 5v2h7v1h-15l-12-5-9-6-7-7-4-7v-7z" fill="#3A3940"/>
<path transform="translate(930,518)" d="m0 0 2 1-8 3-5 1 5 8h-3v2h-6l-5-1-2 2v3l-11-12v-2l2-1 23-2z" fill="#8F0F1B"/>
<path transform="translate(731,883)" d="m0 0h14l-2 2-7 3-2 13h2l5 7v2l4 2 4 4 12 6v2l-7-1-11-6-7-7-6-10-3-7 1-3 4 1z" fill="#292833"/>
<path transform="translate(589,827)" d="m0 0 3 1 2 10-7 5v4h-12l-5-1 2-4 12-11z" fill="#333334"/>
<path transform="translate(991,683)" d="m0 0 5 2 1-2 4 2 2 8 1 11v19l-2 2-2-6-4-21-5-12z" fill="#EBCEA2"/>
<path transform="translate(775,889)" d="m0 0 3 2 2-1 5 20 2 14v31l-2 3-1-5-1-17-2-11-1-17-4-15z" fill="#302E39"/>
<path transform="translate(909,551)" d="m0 0h10l7 15 1 9-1-2-3-1 1 12-3-2-4-12z" fill="#775A42"/>
<path transform="translate(964,246)" d="m0 0 5 1 5 6 4 15 1 9h-3l-3-8-2-9-3-5-4-2-4 4-2 5-3 1-1-1v-7l4-6z" fill="#F7F4F0"/>
<path transform="translate(679,887)" d="m0 0h4v3l-15 5-1 1v17l-6 2h-2l-1-2v-14l5-5h3v-3l4-1v-2z" fill="#181318"/>
<path transform="translate(973,651)" d="m0 0 4 5 12 22 5 16 4 18 1 11-2-2-4-19-1-7h-2l-6-15-11-21z" fill="#AE7637"/>
<path transform="translate(983,1148)" d="m0 0h4l11 18 7 15 1 7 5 2-3 2h-3l-1 3-2-8-8-16-11-19z" fill="#2E0708"/>
<path transform="translate(322,364)" d="m0 0 1 2h5l3 2-2 6-5 10-3 8-1 6h-1l-2-13-1-3-2 1 3-9 2-5h2z" fill="#241513"/>
<path transform="translate(924,590)" d="m0 0h2l1 6 1 22-1 11-2 12-4 8-3 10-6 11-3 2 1-8 7-15 5-17 3-12v-19z" fill="#725741"/>
<path transform="translate(532,529)" d="m0 0 3 3 8 28 9 34-1 3-3-1-11-43-5-19z" fill="#2E0708"/>
<path transform="translate(1208,834)" d="m0 0 3 1 1 4-1 5h2l-2 5 2 4-1 5h3l2-3v9l1 11 2 6v7h-1l-3-12-2-1-1 10h-1l-2-15-2-22z" fill="#BBB6AF"/>
<path transform="translate(1241,1078)" d="m0 0 2 1-6 10-5 5-5 4-5-2v-3l-2-1 2-7 4-1 1-4 5 2h5z" fill="#25232F"/>
<path transform="translate(1007,844)" d="m0 0h5l5 16-1 3-11-7-8-5-6-1 1-2z" fill="#3B363E"/>
<path transform="translate(958,620)" d="m0 0 4 2 10 11-1 8-4 1-8-6-2-2v-8z" fill="#EED3AA"/>
<path transform="translate(491,596)" d="m0 0h3l8 31 3 8 4 17v7l-2-1-7-26-4-11-2-10-4-14z" fill="#EBD6B5"/>
<path transform="translate(871,515)" d="m0 0 4 1 8 5v2l4 2 12 11 1 4-10-1-4-2-3-8-3-4-5-3-4-6z" fill="#FBF8F5"/>
<path transform="translate(402,333)" d="m0 0 3 1-1 4-11 8-7 6-3-1-3-3-2-6v-7l4 1 2 4 5 2 7-4h2v-2z" fill="#100909"/>
<path transform="translate(807,1261)" d="m0 0 1 4-4 15-4 1-6-7-1-7 10-5z" fill="#B9BABB"/>
<path transform="translate(1317,1263)" d="m0 0 4 4 2 4 3 3 10 16 2 4v5l-3-3-18-22-1-9z" fill="#5E5558"/>
<path transform="translate(509,440)" d="m0 0h2l4 11 6 23 4 16 2 12-3-1-4-14-7-30-4-12z" fill="#2D0708"/>
<path transform="translate(1265,1070)" d="m0 0 2 4 3 11v5l-4 4-7 3-1-1 1-10 4-12h2z" fill="#F3D9B1"/>
<path transform="translate(672,952)" d="m0 0 4 2 10 18 4 5 3 5 5 6 4 3 2 6-4-2-8-8-10-13-9-16z" fill="#2A2B38"/>
<path transform="translate(929,723)" d="m0 0h18l7 1v1l-13 1-1 1 7 1v1l-59-1 2-2 35-1z" fill="#FCE7C4"/>
<path transform="translate(829,422)" d="m0 0 13 4 12 5 17 9 16 12 13 12-1 2-10-9-10-8-2-1v-2l-5-2-17-10-21-6-5-4z" fill="#1F0706"/>
<path transform="translate(823,1282)" d="m0 0 1 3-1 13 1 4-4 6 9 2v1h-22l3-1v-2h2l1-4 4-8 5-12z" fill="#24222F"/>
<path transform="translate(751,1310)" d="m0 0h10l-3 4 4 1-2 1-37 2-2-1-1-4h6l2-1v3l9-3 13-1z" fill="#2E1010"/>
<path transform="translate(1018 1e3)" d="m0 0 2 1-9 9-8 10-6 5v-10l1-4 6-5 10-3z" fill="#330A0B"/>
<path transform="translate(355,326)" d="m0 0 2 2v7l-10 11-4 4 1-10 1-2-5 2 4-6 4-5 6-2z" fill="#1E0F0F"/>
<path transform="translate(1006,746)" d="m0 0 4 2 7 8 8 10 10 13 7 8 3 4v2l7 1-2 2-5 1-4-6-13-16-9-11-12-14z" fill="#9A9799"/>
<path transform="translate(1086,896)" d="m0 0 4 4 3 5-2 4-8 6-3-1v-5l-1-5 1-5z" fill="#39353D"/>
<path transform="translate(884,971)" d="m0 0 4 1 5 4 3 1v-2l6-1 1 5-6 6-8-1-6-2-2-2h3v-3h2v-5z" fill="#3D1D1B"/>
<path transform="translate(457,281)" d="m0 0 2 1-9 6-16 11-8 5-2-1 2-4-2-1 20-13 4-2 1 2 2-1z" fill="#1A1518"/>
<path transform="translate(558,844)" d="m0 0 2 3 1 5 4 1-3 1-4 9h-2l-2 5-4-1-1-4-2-1 7-10z" fill="#594134"/>
<path transform="translate(935,1294)" d="m0 0 4 1 9 4 6 4-1 3-9 1h-15v-1l8-1 1-4-4-1z" fill="#181216"/>
<path transform="translate(804,984)" d="m0 0 2 1-2 3 6 3-4 3h-2v2l-4 2h-9l-5-4 1-4h10z" fill="#3C211E"/>
<path transform="translate(783,942)" d="m0 0h1l2 16-1 11-3 9h-2l-2-10h-1v-7l2-3 1-5h2z" fill="#404046"/>
<path transform="translate(806,489)" d="m0 0h17l18 3 16 5v1l-12 1-3-1-9-4v-2h-43v-1z" fill="#94724B"/>
<path transform="translate(637,1264)" d="m0 0 2 1-1 5-10 18-8 11h-4l2-6 8-11 2-1 2-6 5-9h2z" fill="#0E0C0E"/>
<path transform="translate(667,1107)" d="m0 0h3l1 4 1 21-1 1-2 24-2 10h-1l1-13z" fill="#2B2833"/>
<path transform="translate(668,908)" d="m0 0h1l1 12 4 12v3h2l1 6h-2l-2 4-4-10-3-9v-3h-2v-7h3z" fill="#4C424A"/>
<path transform="translate(557,625)" d="m0 0 5 1v9l-2-4v-4h-3l3 14 7 29 5 23 2 1 1-7h1v9h-5l-2-2-2-12-3-12-6-27-3-13v-4z" fill="#8F0E1B"/>
<path transform="translate(750,428)" d="m0 0 2 1-5 5-9 7-4 3-14 5-4 1 5-5 16-10 10-6z" fill="#1A0706"/>
<path transform="translate(696,936)" d="m0 0 4 1v7l-19 4-3-1v-5l9-3z" fill="#EFEFEF"/>
<path transform="translate(915,861)" d="m0 0 3 1h-2l2 6v19l-3 8-2-1v-18l-3-13h5z" fill="#282732"/>
<path transform="translate(941,1268)" d="m0 0h6l-1 5-3 1-1 5-6 5-3-3-1-10z" fill="#BBBBBD"/>
<path transform="translate(587,886)" d="m0 0h7l-4 1 2 1-1 11 1 3h3l-1 4-3-2-6 1v-2h-2l-2-3v-5l2-3 5-2z" fill="#333434"/>
<path transform="translate(872,910)" d="m0 0h3l2 5 3 5 1 2 1-4 2 1v4l3 1 1 4h-2l-1 2 1 4 2 3-1 3-3-3-2-1-10-22z" fill="#3C3C43"/>
<path transform="translate(916,862)" d="m0 0 4 1 4 12 5 9 8 9-1 2-9-9-7-2-2 1-1-17z" fill="#EFEDEC"/>
<path transform="translate(488,360)" d="m0 0 3 4 5 15 7 26v4h-3l-5-18-7-26z" fill="#2E0808"/>
<path transform="translate(779,930)" d="m0 0v3l-6 2v2l-9 5-2 4-4-2-3-1 2-4 9-7z" fill="#3F3F44"/>
<path transform="translate(779,922)" d="m0 0 3 1 1 6 1 13-2 11h-2v5h-1v-23l-6 1 5-4 1-1h-9v-1h8z" fill="#504851"/>
<path transform="translate(1015,750)" d="m0 0 5 3 7 6v2l4 2 19 19v2l-5-2-5-4v-2h-2v-2h-2l-7-8-10-9-4-5z" fill="#989496"/>
<path transform="translate(1228,644)" d="m0 0h7l9 3 17 4 1-2v4l-11-2-14-3-7-2h-2v6l8 5 13 3 13 1 2 1v8h-1v-7l-15-1-16-4-6-4-1-6z" fill="#F9DBA2"/>
<path transform="translate(740,977)" d="m0 0h6l3 16 1 1v7l-5 1-2-5-2-13z" fill="#F2F2F2"/>
<path transform="translate(866,701)" d="m0 0 3 1 1 6-8 4h-17v-2l13-5z" fill="#FAE4C1"/>
<path transform="translate(452,662)" d="m0 0 4 1 2 4v8l-3 2-6-1-3-5 1-5z" fill="#BC8E4D"/>
<path transform="translate(967,909)" d="m0 0h9v3h-2v2l-11 4-5 4-2 2-5-1 3-5 3-3h2v-2z" fill="#444148"/>
<path transform="translate(1214,900)" d="m0 0h1l2 8 1 7 1 3 1 18h2v-10h2l1 3v8l-6 1-3-4-2-15z" fill="#DDC8A9"/>
<path transform="translate(683,887)" d="m0 0h10l-10 5-15 5v21l-3-2v8l-1 3h-2l-3-10v-2l7-2v-17l2-2 12-4h3z" fill="#413A42"/>
<path transform="translate(586,807)" d="m0 0 1 3-7 8-4 6h-2l-7-12v-4l5 1v2l5 1 7-3z" fill="#A50B1E"/>
<path transform="translate(1021,812)" d="m0 0h6l-4 2-7 3-4 2-9 3-13 3-6-1 2-3 32-8z" fill="#F4F2EF"/>
<path transform="translate(640,680)" d="m0 0 1 2-2 6-3 12-1 3h-2l-2 9-3 4h-2l1-7 5-14z" fill="#F7F5F3"/>
<path transform="translate(969,867)" d="m0 0 4 1v4l5 10 3 7v6l-3-4-4-9-4-3-3 1-5-8v-2h2l2 2h2z" fill="#2C2933"/>
<path transform="translate(438,622)" d="m0 0 5 1 3 3v7l-2 3h-5l-5-6 1-6z" fill="#BB8A48"/>
<path transform="translate(863,1284)" d="m0 0h5l-4 1v8l-2 2-2 7 1 1v5l-2-2-8 4-2-1 3-3 5-13 3-7z" fill="#171216"/>
<path transform="translate(876,1158)" d="m0 0h2l-1 4 4 1-1 4 1 2-7 4h-5l-2-6 4-5z" fill="#DCDCDC"/>
<path transform="translate(1204,790)" d="m0 0h1l1 7 6 1 1 18-2-3-4 1-3-6z" fill="#A9947A"/>
<path transform="translate(893,1169)" d="m0 0 1 3-7 12-4 6-4-2 1-8 7-8z" fill="#DFDFDF"/>
<path transform="translate(1213,874)" d="m0 0 4 2 3 12-2 9-4-1-2-1v-10z" fill="#B7B1A7"/>
<path transform="translate(866,869)" d="m0 0 3 3 2-3 1 7v8h-5l-1 2h-2l-2-7 1-9z" fill="#191518"/>
<path transform="translate(620,808)" d="m0 0 10 3 1 2h-9l-3 3-6 2-3 3h-6l-1-3 15-9z" fill="#313234"/>
<path transform="translate(995,772)" d="m0 0 5 1 6 7-1 3-3-4-9-1-5 3-3 5-3-2v-2h-2l-1-3 12-5z" fill="#F1DEC0"/>
<path transform="translate(949,1192)" d="m0 0h2l4 7-1-5 4 4 4 9 2 7v4l3 1 1 5 1 6-3-4-8-16-9-16z" fill="#2B1112"/>
<path transform="translate(943,944)" d="m0 0h1l1 17 3 11v5h-5l-4-16v-5h3z" fill="#F0F0F0"/>
<path transform="translate(692,945)" d="m0 0h16l7 3 1 4-4-1-8-3-14 2h-9v-3z" fill="#2C2B35"/>
<path transform="translate(607,1311)" d="m0 0h3l-1 4-14 17-1 2-4 1-3 1 2-4 9-11 7-9z" fill="#0F0C0E"/>
<path transform="translate(560,883)" d="m0 0 21 2 3 2-5 1h-6l-2 2h-3l-1 5-3 1-4-10z" fill="#323234"/>
<path transform="translate(732,449)" d="m0 0 2 1-3 6-5 5-9 7-5-1 5-7 9-7z" fill="#F7F6F5"/>
<path transform="translate(909,1162)" d="m0 0h8v2h2l1 3-5 2h-13l-3-2 2-4z" fill="#83684E"/>
<path transform="translate(987,357)" d="m0 0 1 4 3 1 2 29-2 1-1-14-3-1-2-10 1-5z" fill="#B24A37"/>
<path transform="translate(899,913)" d="m0 0 2 1 1 7 4 1-11 1h-9l-1-4 12-5z" fill="#F2F2F1"/>
<path transform="translate(1216,682)" d="m0 0 9 1 10 4-3 1-13-4h-3v5l7 5 13 4 9 2h12l-1 5-1-3h-12l-20-5-8-5-1-1v-6z" fill="#F9D998"/>
<path transform="translate(953,904)" d="m0 0 8 1 14 1v3l-11 2-5 2v2l-4 1 1-3z" fill="#F2F1F1"/>
<path transform="translate(536,555)" d="m0 0 2 4 1 5h2l8 32h2l2-2v5l-9-3-3-5h2v-8l-5-17-2-6z" fill="#9B0C1C"/>
<path transform="translate(531,746)" d="m0 0h1l2 8v5l-6 7-3-1-1-6 2-6 3-3h2z" fill="#A97E48"/>
<path transform="translate(762,502)" d="m0 0 1 2-9 5-5 4-14 10-5 5-2-1 9-9 4-5 16-10z" fill="#715742"/>
<path transform="translate(1015,890)" d="m0 0 5 1 1 8-2 4-5 1-4-5 3-7z" fill="#3A353E"/>
<path transform="translate(549,1376)" d="m0 0 3 1-2 4 4 2v2l-12 3-11 2 3-3 13-9z" fill="#F0EFEF"/>
<path transform="translate(1043,918)" d="m0 0 5 2 3 6 2 5 2 3-1 5-2 1-2 3-3-13-4-8z" fill="#310F0E"/>
<path transform="translate(1047,984)" d="m0 0 2 2 2 10-10 4-1-4v-9l2 1v2h3z" fill="#170707"/>
<path transform="translate(688,972)" d="m0 0 4 2 1 2 5 3 2 4h2l1 6-3 1-6-5-4-5-3-7z" fill="#424047"/>
<path transform="translate(913,542)" d="m0 0h14l15 1 1 2-2 1h-9l-5 1h-8l-6-3z" fill="#1B0706"/>
<path transform="translate(891,251)" d="m0 0 19 1 18 4v2h2l-1 2-12-2-1-1-10-1-1-1-13-2z" fill="#AB1424"/>
<path transform="translate(977,783)" d="m0 0 6 1 1 4h2v3h2l4 7 1 2h-6l-7-9-3-7z" fill="#2B2324"/>
<path transform="translate(907,672)" d="m0 0 1 3-6 9-11 12-7 6-2-1 13-13 2-5 8-10z" fill="#6C473C"/>
<path transform="translate(399,340)" d="m0 0 2 1-7 7 1 7 10 25 5 14-1 4-9-24-8-21-1-6z" fill="#F4DAB2"/>
<path transform="translate(1216,899)" d="m0 0h2l2 6 1 18 2 7-1 6h-2l-2-11v-8l-2-4z" fill="#BB8E4E"/>
<path transform="translate(834,730)" d="m0 0h13v2l-33 5h-6l2-3 13-1 4-2z" fill="#FCE7C4"/>
<path transform="translate(989,734)" d="m0 0 7 1 7 2-1 4-6 6-3-1-4-10z" fill="#F4F3F2"/>
<path transform="translate(966,643)" d="m0 0h9v6l-2 10-4-2-3 3h-1v-6h2l1-4 2 1-1-5z" fill="#6E5441"/>
<path transform="translate(655,532)" d="m0 0 1 4v8l2 2 13 3 1 2h-18l-2-3v-8z" fill="#1C0706"/>
<path transform="translate(645,1332)" d="m0 0 1 3-12 11-15 10v-3l11-9 11-10z" fill="#ECEAE8"/>
<path transform="translate(893,1287)" d="m0 0h2l6 12 3 3 2 4 23 1v1h-28l-4-6-1-8z" fill="#171215"/>
<path transform="translate(820,1190)" d="m0 0 2 1-5 9-8 13-11 18h-2l2-5 8-14h2l1-5z" fill="#726A6C"/>
<path transform="translate(547,884)" d="m0 0 2 1 1 12-2 6-8 2v2h6v1h-13l5-4 4-2h3l1-3-2-4z" fill="#333435"/>
<path transform="translate(902,863)" d="m0 0h8l4 13v18 3h-2l-7 9-5 2 6-7 6-12v-12l-3-13-6 1h-10v-1z" fill="#453F46"/>
<path transform="translate(957,785)" d="m0 0h7l-2 1-2 5v6l5 5 4 2-4 2-4-1-8-17 1-2z" fill="#F2DEBF"/>
<path transform="translate(705,925)" d="m0 0m-1 1m-1 1m-1 1m-1 1m-4 1h4l1 4-10 5-10 2h-5v-2l9-2 7-4z" fill="#2E2F38"/>
<path transform="translate(734,894)" d="m0 0 2 3 7 10 9 8 10 4 12 1v1h-13l-9-3-5-3-6-5-5-7v-2h-2l-1-3z" fill="#464047"/>
<path transform="translate(754,437)" d="m0 0h3l-2 4-5 2-7 4-8 6h-2v-5l10-6z" fill="#F5E3C5"/>
<path transform="translate(410,309)" d="m0 0 2 4 4-1-1 4-10 7-4 1 1-4-1-1 6-7z" fill="#070406"/>
<path transform="translate(937,1042)" d="m0 0h19l-1 5h-14l-1-1-7-1z" fill="#161213"/>
<path transform="translate(856,1282)" d="m0 0 4 1-1 9-5 11-2 4h-1l-1-7 3-5z" fill="#24222F"/>
<path transform="translate(895,686)" d="m0 0v3l-12 12-4 5-7 5-7 1v-2l5-3h3l1-3 11-8z" fill="#7F6144"/>
<path transform="translate(418,303)" d="m0 0 5 3 3 2-9 6h-6l-1-6z" fill="#191518"/>
<path transform="translate(1140,1297)" d="m0 0 3 1v2l6 3v1l-23 1 2-3 8-4z" fill="#F5DFBC"/>
<path transform="translate(733,1062)" d="m0 0h9l4 8-1 1h-9l-2-2z" fill="#0A0506"/>
<path transform="translate(487,734)" d="m0 0 3 3 3 7 5 9-4-2-9-7-1-5z" fill="#BC8E4D"/>
<path transform="translate(895,922)" d="m0 0h7l12 4 6 4v3h-3l-4-3-9-4-13-2z" fill="#2E2C37"/>
<path transform="translate(604,803)" d="m0 0 5 1-1 3-14 10-6 4 2-4 10-11z" fill="#E2E0DF"/>
<path transform="translate(889,923)" d="m0 0 15 2 14 7v3h-2v-3l-5-1-5-2h-16l-2-5z" fill="#4A424A"/>
<path transform="translate(721,887)" d="m0 0h1v16l-2 9h-3l-1-8v-11l1 3 4 1z" fill="#2C2F37"/>
<path transform="translate(756,919)" d="m0 0 5 1h15v2l2 1 1-2v4l-13 1-6-1v-3z" fill="#3B3B41"/>
<path transform="translate(927,870)" d="m0 0h1l2 10 6 8 5 5 1 3-4-1-8-8-4-7v-7z" fill="#2A2833"/>
<path transform="translate(340,450)" d="m0 0 3 1 3 5 3 12 3 5 1 6-3-1-10-25z" fill="#F1DBB9"/>
<path transform="translate(468,323)" d="m0 0 2 4-1 4 2 1v3l1 5h2v3l4 2 5 7-2 1-8-8v-3l-3-1v-2h-2l-2-7 1-8z" fill="#AB0A1F"/>
<path transform="translate(753,1152)" d="m0 0h3l4 4 10 4-2 2-10-1-5 2z" fill="#1B0F10"/>
<path transform="translate(1194,788)" d="m0 0h17v10h-5l-1-1-2 3v-11h-9z" fill="#53433B"/>
<path transform="translate(891,539)" d="m0 0h10l5 6 1 5-13-6-5-4z" fill="#F9E4C1"/>
<path transform="translate(410,632)" d="m0 0h4l4 9-1 3-3 1-2 2-3-9-1-5z" fill="#916E45"/>
<path transform="translate(1265,1070)" d="m0 0 2 4 3 11v5l-2 2h-3l1-7-2-4-3 1 1-6 1-2h2z" fill="#F3DFBE"/>
<path transform="translate(919,649)" d="m0 0h1l-1 7-7 14-3 2 1-8 7-13z" fill="#745942"/>
<path transform="translate(864,1285)" d="m0 0h4v7l-5 12-2 2-2-5 3-7 1-2z" fill="#241515"/>
<path transform="translate(901,798)" d="m0 0h4l4 11v7l-5-2z" fill="#25191A"/>
<path transform="translate(669,886)" d="m0 0h14l-4 2-7 1-2-1v2l-5 1 1-3h-8v2l-21-1v-1z" fill="#170706"/>
<path transform="translate(420,669)" d="m0 0 1 2 4-1 3 3 2 6-5 5-4-10z" fill="#976F42"/>
<path transform="translate(626,1282)" d="m0 0 2 1 1 3-9 13h-4l2-6z" fill="#0D0A0B"/>
<path transform="translate(673,664)" d="m0 0h2l1 6-13 7h-2l2-4z" fill="#F1D5AC"/>
<path transform="translate(725,545)" d="m0 0h2l-2 6h-2l-1 5h-2v5l-5 4-2-1 7-14z" fill="#FAE6C5"/>
<path transform="translate(773,925)" d="m0 0h5v5l-8 1-6 2v-7z" fill="#F3F2F1"/>
<path transform="translate(522,833)" d="m0 0 7 6 12 13 7 5 1 4h-3l-3-3v-2l-3-1-7-8-1-3h-2l-7-8z" fill="#EBD8BA"/>
<path transform="translate(872,878)" d="m0 0h1l1 6v8l-4-6-1 3 1 5-3 4-3-12h2l1-3h4z" fill="#37363E"/>
<path transform="translate(708,884)" d="m0 0h6l2 3v7l-3-1v-3l-5-2-12-1-3-1 2-1z" fill="#413A43"/>
<path transform="translate(1208,834)" d="m0 0 3 1 1 4-1 5h2l-2 5 2 4-2 5h-2l-1-10z" fill="#D6C1A5"/>
<path transform="translate(402,333)" d="m0 0 3 1-1 4-11 8-2 1-2-5 7-4h2v-2z" fill="#21110F"/>
<path transform="translate(978,964)" d="m0 0h3v3l-4 4-1 3h-2l-1 3-15 8-3-1 11-6 7-6z" fill="#F5EAD8"/>
<path transform="translate(672,952)" d="m0 0 4 2 8 15-1 2-4-2-7-14z" fill="#2E313E"/>
<path transform="translate(784,931)" d="m0 0 1 2h2v22l-2 3-1-5z" fill="#2B2C35"/>
<path transform="translate(769,931)" d="m0 0h5l-3 4-10 5-1 3h-5l2-4 9-7z" fill="#2C2D36"/>
<path transform="translate(497,386)" d="m0 0 2 4 4 15v4h-3l-5-18 1-3z" fill="#2E0B0B"/>
<path transform="translate(915,861)" d="m0 0 3 1h-2l2 6v9l-5-5v-4h-2l-1-5h5z" fill="#261E1F"/>
<path transform="translate(968,655)" d="m0 0 1 2 4 2-2 11-2 4-1-3h-3l2-6z" fill="#816244"/>
<path transform="translate(968,599)" d="m0 0 2 1v14h-7v-2h-5v-1l7-2 2-9z" fill="#E6D5BA"/>
<path transform="translate(1202,1135)" d="m0 0 3 1-4 1v2l-14 7-3-1 3-3-4-1 9-3z" fill="#F9E2BF"/>
<path transform="translate(1214,900)" d="m0 0h1l2 8 1 7 1 3v10l-1-2h-2l-2-7z" fill="#D8C5AC"/>
<path transform="translate(647,648)" d="m0 0 2 3v5l-11 12h-2v-4h2v-2h2l1-4h2v-2h3z" fill="#AF1525"/>
<path transform="translate(924,642)" d="m0 0h1l-1 11h-2l-1 6-4 6h-2l1-4 3-7 2-6z" fill="#816345"/>
<path transform="translate(787,990)" d="m0 0h5l2 4 7 1-1 3h-9l-5-4z" fill="#4A2B28"/>
<path transform="translate(629,924)" d="m0 0h1l2 9 2 4v3l-10-4 2-6 2-2z" fill="#361715"/>
<path transform="translate(667,906)" d="m0 0h1v12l-3-2v8l-1 3h-2l-3-10v-2l7-2z" fill="#292833"/>
<path transform="translate(726,677)" d="m0 0 8 6 6 6v2h2l4 5v2l-4-2-14-14z" fill="#FBE6C2"/>
<path transform="translate(930,588)" d="m0 0 2 2 1 12v20l-2 3v-27l-2-1v-7z" fill="#664E3F"/>
<path transform="translate(430,1074)" d="m0 0h5l-1 2-13 6-7 1 2-4z" fill="#282328"/>
<path transform="translate(923,860)" d="m0 0h5l-4 1 3 8v11l-3-3-3-7z" fill="#170909"/>
<path transform="translate(452,664)" d="m0 0 5 1 1 2v8l-3 2h-4l-3-5v-3h2l2 3 4 1-2-5-2-1z" fill="#B77832"/>
<path transform="translate(895,475)" d="m0 0 4 2 8 9 9 14-1 3-3-4-3-5-5-7v-2h-2l-3-5-4-4z" fill="#F2DDBA"/>
<path transform="translate(988,378)" d="m0 0h2l2 13 2 3v14l-2-1-4-24-1-4z" fill="#B51627"/>
<path transform="translate(982,937)" d="m0 0 3 3v8l-2 5-2-4-3-7v-4z" fill="#413F45"/>
<path transform="translate(896,955)" d="m0 0 6 4v2l3 1 1 2 3 1 4 9-4-2-7-7-6-8z" fill="#313039"/>
<path transform="translate(966,659)" d="m0 0 2 1-1 7-2 5h-2l-1 7-2 1 1-8 3-12z" fill="#795C42"/>
<path transform="translate(850,986)" d="m0 0 23 1-1 4-3 7-1-3 1-4-19-4z" fill="#A56D48"/>
<path transform="translate(782,740)" d="m0 0m-6 1h6l-3 3-16 3-12 3h-5l4-2z" fill="#F8E3C1"/>
<path transform="translate(932,693)" d="m0 0 4 1 8 4-4 1-6-2-2 3h-2l-2 5-3 1-1-2 7-9z" fill="#755941"/>
<path transform="translate(783,917)" d="m0 0 3 3 1 4v9h-2l-2 3-2-11 2-5z" fill="#393740"/>
<path transform="translate(731,883)" d="m0 0h14l-2 2-7 3-1 5-3-3z" fill="#473F47"/>
<path transform="translate(1006,829)" d="m0 0 7 1v2l-17 4h-5l4-4 9-1z" fill="#F7F5F3"/>
<path transform="translate(971,634)" d="m0 0h2l9 12 1 4-4-4-4-1-1-2-3-1z" fill="#F1ECE6"/>
<path transform="translate(932,591)" d="m0 0h1l1 8v24l-2 13h-1l-1-10 2-4z" fill="#92724D"/>
<path transform="translate(954,613)" d="m0 0h9v1h-7l1 3 2 2h-2l-1 4-4 1-1-1v-7z" fill="#604B3E"/>
<path transform="translate(922,583)" d="m0 0 3 1 1 17v19l-2 4v-21z" fill="#967247"/>
<path transform="translate(726,1232)" d="m0 0h2l-2 6-8 18-2-4 2-4 3-8 3-3z" fill="#3C1C1A"/>
<path transform="translate(807,1222)" d="m0 0h2l-2 6-8 13-3 1 1-4 3-6 2-1 3-7h2z" fill="#6078A6"/>
<path transform="translate(1205,800)" d="m0 0h6l-1 11-5-1z" fill="#EDD1A9"/>
<path transform="translate(967,909)" d="m0 0h9l-4 2-11 6-5 5-3-1 11-11z" fill="#2B2A35"/>
<path transform="translate(1037,986)" d="m0 0m-1 1m-2 1 2 1-25 25v-3l18-18z" fill="#725341"/>
<path transform="translate(727,890)" d="m0 0 2 1 4-1 1 2v10l-2 2-5-11z" fill="#29242B"/>
<path transform="translate(917,516)" d="m0 0 10 3v1l-16 2h-9l1-2 10-1z" fill="#1F0706"/>
<path transform="translate(712,452)" d="m0 0 2 1-8 9-8 6-5 6-2-1 7-8 7-7z" fill="#1E0707"/>
<path transform="translate(426,336)" d="m0 0 2 1h9l-4 3-4 2-2 3-6-5v-3z" fill="#1A0807"/>
<path transform="translate(646,1036)" d="m0 0 3 3 4 7 3 6 3 8 1 1v6l-2-3-9-21-3-5z" fill="#24222F"/>
<path transform="translate(1213,874)" d="m0 0 4 2 3 12-1 3-2-1v-4l-3-3z" fill="#BB8F51"/>
<path transform="translate(992,688)" d="m0 0 2 2 4 12 2 10v6l-2-1-4-20z" fill="#BB8C4B"/>
<path transform="translate(1216,682)" d="m0 0 9 1 10 4-3 1-13-4h-3v5l4 3-1 3-5-4v-6z" fill="#F9DA9E"/>
<path transform="translate(919,550)" d="m0 0h19v5l-3-2h-11l-4 2z" fill="#D9CBB4"/>
<path transform="translate(829,1268)" d="m0 0 5 1 13 7-4 1-2-1v2l-4-2-5-5-3-1z" fill="#24222F"/>
<path transform="translate(390,1092)" d="m0 0 4 1-4 4h-3v2l-5 2-7 1 3-3z" fill="#312C31"/>
<path transform="translate(663,1090)" d="m0 0 5 2v13l-3 1-2-11z" fill="#2A2832"/>
<path transform="translate(552,881)" d="m0 0 5 3 4 2v9l-5-5-3-5z" fill="#2E0708"/>
<path transform="translate(611,798)" d="m0 0 8 1v2l-10 5-1-2-3-2z" fill="#EFDEC1"/>
<path transform="translate(819,436)" d="m0 0h2l-1 5-7 7-4 1v-3l9-9z" fill="#B37430"/>
<path transform="translate(884,971)" d="m0 0 4 1 2 2v8l-3 1-6-2 3-1v-3h2v-5z" fill="#872027"/>
<path transform="translate(1043,834)" d="m0 0 2 1-4 4-3 1v2l-7-1v-2l-2-1z" fill="#343436"/>
<path transform="translate(544,586)" d="m0 0 1 3h2l2 7h2l2-2v5l-9-3-3-5h2z" fill="#A30B1D"/>
<path transform="translate(557,286)" d="m0 0h5v3l-10 3h-5v-3z" fill="#B11526"/>
<path transform="translate(891,911)" d="m0 0 3 1-8 6-3 1-1-3 2-3zm-11 6 2 2v6l-2-1z" fill="#434046"/>
<path transform="translate(714,894)" d="m0 0h2l1 18-3 6h-3l1-2h2z" fill="#444046"/>
<path transform="translate(852,728)" d="m0 0h15l3 2-6 1h-16l1-2z" fill="#FCE7C4"/>
<path transform="translate(1e3 687)" d="m0 0h1l1 6v10l-2 1v-5h-2l-1-8z" fill="#D8B46D"/>
<path transform="translate(667,1310)" d="m0 0 1 2 2 1-8 7-9 9v-3l5-5 7-9z" fill="#3C3535"/>
<path transform="translate(1064,1268)" d="m0 0 2 4 1 9-4-1-1-6h-2l2-4h2z" fill="#FBEFDB"/>
<path transform="translate(935,1157)" d="m0 0 3 1 7 11-1 2-5-6-7-3 2-4z" fill="#2E0809"/>
<path transform="translate(969,867)" d="m0 0 4 1v4l2 3v5l-6-5-1-7z" fill="#292225"/>
<path transform="translate(973,651)" d="m0 0 4 5 3 6v5l-3-1-4-7z" fill="#A77D47"/>
<path transform="translate(399,340)" d="m0 0 2 1-7 7 1 7 4 10-1 2-4-8-3-9 1-4z" fill="#EFDCBE"/>
<path transform="translate(916,862)" d="m0 0 4 1 2 9h-2l-1 11h-1l-1-15z" fill="#E0CDB0"/>
<path transform="translate(598,795)" d="m0 0 4 2-19 19v-3l11-11 2-5h2z" fill="#220606"/>
<path transform="translate(654,629)" d="m0 0 2 3 4 7 1 5h-5l-2-7z" fill="#FCE8C5"/>
<path transform="translate(1158,1302)" d="m0 0h18v2l-3 1h-16l-4-2z" fill="#F9E2BD"/>
<path transform="translate(975,899)" d="m0 0 2 4v4l-16-1v-1l5-1v-2l7-1 2 1z" fill="#494950"/>
<path transform="translate(938,790)" d="m0 0h4l2 5-1 4v-2l-5-1-4-4z" fill="#F0DFC1"/>
<path transform="translate(984,730)" d="m0 0 9 2 10 3v2h-6l-6-2-9-1 4-2z" fill="#F5DEBA"/>
<path transform="translate(1e3 654)" d="m0 0 2 2v8l-1 3h-2l-2-7v-5l3 1z" fill="#A70A1E"/>
<path transform="translate(1222,908)" d="m0 0h1l1 18-3 1-1-4v-10h1z" fill="#B9B1A8"/>
<path transform="translate(547,582)" d="m0 0h2l3 14h-4l-1-3z" fill="#210807"/>
<path transform="translate(682,1299)" d="m0 0h7l1 2-5 8h-1v-5l-2-1 1-2-2-1z" fill="#321012"/>
<path transform="translate(692,985)" d="m0 0 4 1 6 5 2 6-4-2-8-8z" fill="#34333D"/>
<path transform="translate(701,947)" d="m0 0 6 1 2 2-17 1-7 1-2-2 3-1 14-1z" fill="#3E3F44"/>
<path transform="translate(1060,925)" d="m0 0h7v3l-6 5-3-1 1-5z" fill="#3A353E"/>
<path transform="translate(1122,901)" d="m0 0 9 1-1 2-5-2v2h2l-1 4-6-1-1-5z" fill="#463F45"/>
<path transform="translate(672,311)" d="m0 0h2v3h-2l-2 5-2 4h-2v3h-2l-1 3 1-7 3-3 3-6h2z" fill="#992422"/>
<path transform="translate(882,972)" d="m0 0h4v5h-2v3l-2 1v2h-2v-2h-2v-2l2-2z" fill="#321817"/>
<path transform="translate(503,640)" d="m0 0h2l3 7 1 5v7l-2-1-4-16z" fill="#F4DEBB"/>
<path transform="translate(959,1210)" d="m0 0 4 1 1 5v2l3 1 1 5 1 6-3-4-7-14z" fill="#281616"/>
<path transform="translate(970,878)" d="m0 0 4 4h-2l3 11v5l-2-2-5-14z" fill="#3E3D43"/>
<path transform="translate(657,336)" d="m0 0 2 1-10 10-3 2-2 7-2-1v-5z" fill="#F9E2BE"/>
<path transform="translate(1106,1296)" d="m0 0 3 6 3 2h-11l2-5z" fill="#F8E0BC"/>
<path transform="translate(890,975)" d="m0 0 6 2-1 6-6 1z" fill="#3A1817"/>
<path transform="translate(889,923)" d="m0 0 15 2v1l-10 1v2h-4l-2-5z" fill="#3F3F44"/>
<path transform="translate(360,500)" d="m0 0h2l8 21-1 2-4-7-5-14z" fill="#F5E0BE"/>
<path transform="translate(945,1299)" d="m0 0 5 1 4 4-1 2-7 1 1-5-3-2z" fill="#1D0F0E"/>
<path transform="translate(545,876)" d="m0 0 6 2 10 4-2 4-5-3-4-3-3 1z" fill="#180908"/>
<path transform="translate(971,781)" d="m0 0 4 1 5 8-4-2-6-2v-2l-2-1z" fill="#F6E0BD"/>
<path transform="translate(406,757)" d="m0 0h1l1 13 3 4-1 2-3-3v-2h-2l-2-6z" fill="#E4CAA4"/>
<path transform="translate(672,702)" d="m0 0 3 1 8 11v3l-6-5-5-8z" fill="#7A5D42"/>
<path transform="translate(373,328)" d="m0 0 5 1 2 2v4h-2l-1 4-4-10z" fill="#291712"/>
<path transform="translate(881,1152)" d="m0 0 8 10-5-1-2-2-5-1z" fill="#CDCDCE"/>
<path transform="translate(928,873)" d="m0 0 3 4 7 10 3 4-5-2-7-9z" fill="#464147"/>
<path transform="translate(1205,790)" d="m0 0h3 2l1 8h-5l-1-1z" fill="#846A51"/>
<path transform="translate(803,735)" d="m0 0 3 1v2l-15 3h-5l2-2z" fill="#FCE7C5"/>
<path transform="translate(652,614)" d="m0 0 2 1 1 14-1 7h-1l-1-6z" fill="#CDB38F"/>
<path transform="translate(864,1293)" d="m0 0 2 1-3 10-2 2-2-5 3-6z" fill="#261716"/>
<path transform="translate(1093,1245)" d="m0 0h2l1 7 2 2h-7l-1-4z" fill="#F9E3BE"/>
<path transform="translate(795,1233)" d="m0 0v3l-8 14-1-4 6-11z" fill="#776F71"/>
<path transform="translate(1219,921)" d="m0 0 2 2 2 7-1 6h-2l-1-3z" fill="#A99277"/>
<path transform="translate(925,862)" d="m0 0 26 1v1h-23l-1 5-2-3z" fill="#453F46"/>
<path transform="translate(571,656)" d="m0 0 2 1v2h2l1 4-1 5v2h-2v-5h-2v-6z" fill="#BB1729"/>
<path transform="translate(736,517)" d="m0 0 2 1-9 9-5 6-2-1 9-11z" fill="#816243"/>
<path transform="translate(828,418)" d="m0 0 1 3 12 2 7 4-3 1-17-6z" fill="#8F0F1B"/>
<path transform="translate(544,1380)" d="m0 0 2 1-1 4-5 1 2 2-11 2 3-3z" fill="#CECDCD"/>
<path transform="translate(817,1293)" d="m0 0 1 3-6 12h-2v2h-3l2-4 2-3h2l2-6z" fill="#171216"/>
<path transform="translate(948,1186)" d="m0 0 4 2 3 6 1 7-4-5z" fill="#2E0708"/>
<path transform="translate(781,966)" d="m0 0 3 1-1 8-1 3h-2l-1-5z" fill="#35353F"/>
<path transform="translate(986,916)" d="m0 0h1v18l-2 2-1-12 1-1z" fill="#4B4B55"/>
<path transform="translate(1047,964)" d="m0 0h1v15l5-2-1 4-2 1v4h-2l-1-5z" fill="#3E3A3E"/>
<path transform="translate(868,896)" d="m0 0h2l3 9-1 4h-2l-2-7z" fill="#3E3E47"/>
<path transform="translate(653,887)" d="m0 0h12v1h-7v2l-21-1v-1z" fill="#170808"/>
<path transform="translate(685,536)" d="m0 0h16l-3 2-6 1h-12l1-2z" fill="#FCE8C5"/>
<path transform="translate(735,528)" d="m0 0 1 4-5 4-3 3v-2l-2-1h2v-3z" fill="#69503D"/>
<path transform="translate(762 1e3)" d="m0 0 2 1-1 1 2 2-8 4h-5l3-3z" fill="#F1EADC"/>
<path transform="translate(680,992)" d="m0 0 5 5 5 6-3 1-3-3v-2l-4-2z" fill="#422422"/>
<path transform="translate(771,889)" d="m0 0 2 4 3 9v5l-3-3-3-11z" fill="#37363E"/>
<path transform="translate(782,883)" d="m0 0h10l-2 4h-8z" fill="#E8DECF"/>
<path transform="translate(539,851)" d="m0 0 9 6 1 4h-3l-3-3v-2l-3-1z" fill="#F5E1BF"/>
<path transform="translate(663,760)" d="m0 0 4 1-15 8-3-1 4-3z" fill="#B87D38"/>
<path transform="translate(907,672)" d="m0 0 1 3-3 5-5 3-2-1 7-9z" fill="#6F5444"/>
<path transform="translate(926,620)" d="m0 0h1v9l-1 3-3 1v-7z" fill="#765A42"/>
<path transform="translate(867,1165)" d="m0 0 2 1-4 4-4 1v7h-1v-8l-4-1 9-3z" fill="#CFCDCD"/>
<path transform="translate(402,1085)" d="m0 0 4 1-4 4-7 2-1-2z" fill="#343034"/>
<path transform="translate(918,1039)" d="m0 0h6v6l1 2h-3l-4-5z" fill="#0A080A"/>
<path transform="translate(764,933)" d="m0 0 2 1-5 6-1 3h-5l2-4z" fill="#2F2D37"/>
<path transform="translate(721,887)" d="m0 0h1v16l-2 1-3-5v-3l4 1z" fill="#3F383D"/>
<path transform="translate(959,797)" d="m0 0 6 5 4 2-4 2-4-1-2-5z" fill="#F9E5C3"/>
<path transform="translate(981,793)" d="m0 0 5 5-1 3h-6l1-7z" fill="#F4DFBE"/>
<path transform="translate(410,753)" d="m0 0 7 1v3l-3 1-5-1 1 3h-2l-1-3z" fill="#856747"/>
<path transform="translate(751,738)" d="m0 0 4 1-3 1-1 2-4 1h-7v-2z" fill="#F8E0BB"/>
<path transform="translate(898,526)" d="m0 0 7 6 7 9h-3l-2-4h-2l-7-9z" fill="#1F0707"/>
<path transform="translate(408,320)" d="m0 0 2 1-1 2 2-1h6v1l-13 4-3-1z" fill="#343435"/>
<path transform="translate(710,946)" d="m0 0 5 2 1 4-4-1-8-3v-1z" fill="#2D2E37"/>
<path transform="translate(668,908)" d="m0 0h1v13h-3l-2 2v-7h3z" fill="#424046"/>
<path transform="translate(670,783)" d="m0 0 2 1-8 6-5-1 3-3z" fill="#2C2E35"/>
<path transform="translate(422,674)" d="m0 0h4l2 8-3 2-3-7z" fill="#B48547"/>
<path transform="translate(411,1081)" d="m0 0 4 1-4 4-6 1v-3z" fill="#2F2A2E"/>
<path transform="translate(711,544)" d="m0 0v3l-3 4-1-4-14 1 4-2z" fill="#8B0F1A"/>
<path transform="translate(347,465)" d="m0 0 4 5 2 9-3-1-3-9z" fill="#F5E1C0"/>
<path transform="translate(795,1043)" d="m0 0h1l2 10 2 2-11 1 3-2h3z" fill="#FAE2BF"/>
<path transform="translate(898,974)" d="m0 0h4l1 5-3 2-4-4v-2z" fill="#502E27"/>
<path transform="translate(556,906)" d="m0 0 7 2-1 3-10-1-1-2h5z" fill="#221617"/>
<path transform="translate(768,883)" d="m0 0 5 1 2 5-5 1-2-4z" fill="#181418"/>
<path transform="translate(906,489)" d="m0 0h3l7 11-1 3-3-4-3-5z" fill="#EFDCBE"/>
<path transform="translate(829,422)" d="m0 0 5 1v2l6 2 1 2-7-1-5-4z" fill="#190706"/>
<path transform="translate(634,1340)" d="m0 0m-1 1m-1 1m-1 1m-1 1m-1 1m-1 1m-1 1m-2 1h2l-2 4-7 4 2-4z" fill="#F5F4F3"/>
<path transform="translate(864,1304)" d="m0 0 4 2 2 2-10 2 1-4z" fill="#ECEBEA"/>
<path transform="translate(742,1120)" d="m0 0h1l1 8v11l-2-1-1-8z" fill="#57382B"/>
<path transform="translate(665,923)" d="m0 0 2 3v5l-4 2-1-6h2z" fill="#3E404A"/>
<path transform="translate(894,910)" d="m0 0h2l-1 6-5 2h-5l4-3h2l1-3h2z" fill="#2E2E37"/>
<path transform="translate(984,903)" d="m0 0h1l1 13h-3l-1-2v-6h2z" fill="#484A55"/>
<path transform="translate(542,902)" d="m0 0v3h-2v2h6v1h-13l5-4z" fill="#303033"/>
<path transform="translate(925,866)" d="m0 0 2 3v11l-3-3-2-5 3-1z" fill="#1D161B"/>
<path transform="translate(410,635)" d="m0 0 3 2 1 6 3 1-3 1-2 2-2-6z" fill="#AD8753"/>
<path transform="translate(916,255)" d="m0 0 12 2 2 1-1 2-12-2z" fill="#BC182A"/>
<path transform="translate(878,208)" d="m0 0 10 1 3 2-1 2-5-1-7-3z" fill="#4B4449"/>
<path transform="translate(762,938)" d="m0 0 5 1-4 4-1 3-4-2 2-1 1-4z" fill="#434046"/>
<path transform="translate(561,885)" d="m0 0 4 2h2l-1 4-1 3h-2z" fill="#39353D"/>
<path transform="translate(1025,884)" d="m0 0 3 4 1 4-3 1v-4h-5l2-4z" fill="#3B363F"/>
<path transform="translate(1006,829)" d="m0 0 7 1v2l-11 2 1-3z" fill="#F1EFEC"/>
<path transform="translate(1222,926)" d="m0 0h2l1 3v8l-3 1-1-2 1-6z" fill="#D6C2A6"/>
<path transform="translate(436,629)" d="m0 0 6 3 1-3h2l-2 5-5 1-2-2z" fill="#B5732B"/>
<path transform="translate(930,588)" d="m0 0 2 2v12l-1-4-2-1v-7z" fill="#68503F"/>
<path transform="translate(918,551)" d="m0 0 1 2-1 4v3l-4-3-1-5z" fill="#826345"/>
<path transform="translate(998,1068)" d="m0 0v3l-3 5-3 2v-5z" fill="#2E0708"/>
<path transform="translate(984,940)" d="m0 0h1v8l-2 5-2-4v-4h3z" fill="#414048"/>
<path transform="translate(1037,916)" d="m0 0 5 2 2 4v3l-4-2z" fill="#F3DBB6"/>
<path transform="translate(730,725)" d="m0 0 5 1 5 3v2l-5-1z" fill="#715843"/>
<path transform="translate(1227,646)" d="m0 0 1 2 1 5 5 4-6-1-3-4 1-5z" fill="#FBD585"/>
<path transform="translate(971,634)" d="m0 0h2l3 5-2 3h-3z" fill="#F8E5C5"/>
<path transform="translate(776,308)" d="m0 0 6 1v1l-11 1-2 1-9-1v-1z" fill="#B74733"/>
<path transform="translate(1058,1272)" d="m0 0 4 2 2 7h-4l-2-5z" fill="#A55539"/>
<path transform="translate(753,919)" d="m0 0 5 1 3 2v2l-7-1z" fill="#2B2B35"/>
<path transform="translate(574,893)" d="m0 0 5 1-1 5-5-2z" fill="#343535"/>
<path transform="translate(976,882)" d="m0 0h2l3 7v6l-3-4z" fill="#33313A"/>
<path transform="translate(551,810)" d="m0 0 5 2 7 8h-3l-5-5z" fill="#EAD4B2"/>
<path transform="translate(618,787)" d="m0 0 5 1 1 3-5 1v2l-2-1z" fill="#A9814B"/>
<path transform="translate(402,333)" d="m0 0 3 1-1 4-5 1-1-3z" fill="#0D0809"/>
</svg>
